<svg xmlns="http://www.w3.org/2000/svg" viewBox="0 0 1573 1080"><rect x="25.24" y="24" width="595.28" height="841.89" style="fill:#fff;stroke:#000;stroke-miterlimit:10;stroke-width:2px"/><path d="M327.46,181.54H87.13a.25.25,0,0,0-.25.25v595.8a.25.25,0,0,0,.25.25H565.41a.25.25,0,0,0,.25-.25V181.79a.25.25,0,0,0-.25-.25ZM87.35,777.34V301l0-118.94H565.16l0,0V658.43l0,118.94H89.51l-2.16,0Z" style="fill:#2c2c2c"/><polygon points="565.16 182.01 563.03 182.01 325.08 182.01 87.38 182.01 87.36 300.95 87.36 539.27 87.36 777.34 89.51 777.36 327.46 777.36 565.16 777.36 565.18 658.43 565.18 420.11 565.18 182.04 565.16 182.01 565.16 182.01 565.16 182.01" style="fill:#f8e2bf;opacity:0.379999995231628"/><path d="M171.91,360c0,4.05,0,8.1,0,12.16a2.23,2.23,0,0,0,.24,1.55,2.7,2.7,0,0,0,.25.34q0,21.89-.17,43.78-.16,27.52-.21,55c0,9.06,0,18.11.06,27.16q0,14.78.06,29.56c0,8.94.15,17.88.23,26.82,0,4.3,0,8.6.13,12.89.07,3.69.18,7.37.22,11.06,0,5.3,0,10.6,0,15.91a1.22,1.22,0,0,0,1.22,1.22h11c.9,0,1.81,0,2.7,0,.37,0,.74,0,1.11,0h2.83c2,0,4,.05,6,.07q13.38.13,26.76.23c18,.12,36.08.25,54.12.24q25.62,0,51.25,0,27.9,0,55.79,0,25.31-.09,50.61-.18c3.88,0,7.76,0,11.64,0,3.64,0,7.28-.1,10.93-.14,7.14-.06,14.3-.06,21.45,0h6.92a1.27,1.27,0,0,0,1.26-1.26V575.59c0-1.32,0-2.64,0-4a1,1,0,0,0-.06-.41c0-.46,0-.93,0-1.39,0-.73,0-1.46,0-2.19,0-2.07,0-4.13,0-6.2,0-3.9,0-7.81,0-11.71V525q0-13.54,0-27.1c0-9.11.08-18.22.1-27.33s.08-18,.1-27c0-8.12,0-16.24,0-24.37q0-11.76,0-23.51c0-7.5.06-15,.12-22.49l0-4.44c0-.49,0-1,0-1.47a1.61,1.61,0,0,0,.21-.84q0-3.25,0-6.51a1.82,1.82,0,0,0-1.81-1.8c-8.69,0-17.37-.09-26.06-.11s-17.29,0-25.93,0q-26.44,0-52.9.06-13.25,0-26.5.13c-9,.08-17.92.11-26.87.14-17.63.07-35.27.14-52.9.06q-25.66-.12-51.33-.14c-3.41,0-6.82,0-10.22,0l-5.65,0H208c-.59,0-1.18,0-1.77,0-.87.06-1.76,0-2.64.06-1.31,0-2.62,0-3.93.07-2.06,0-4.11.05-6.17.12-.59,0-1.19.05-1.79.06H191a4.72,4.72,0,0,0-1.57-.4h-.06a3.88,3.88,0,0,0-.58-.09l-.53-.05h-.11l-.35,0-.61-.08H187l-.28,0h-.07a11.94,11.94,0,0,0-1.34,0H174a2.07,2.07,0,0,0-2.05,2Zm21.15,1.33c2.19.08,4.39.11,6.59.13,1.31,0,2.62,0,3.93.07.9,0,1.82,0,2.72.07.64,0,1.28,0,1.93,0h.82l6,0c3.69,0,7.38,0,11.07,0,17.68,0,35.36-.09,53-.15,17.52-.06,35.05,0,52.57.08q13.5,0,27,.16c8.89.09,17.79.09,26.69.11q25.57,0,51.15,0,12.53,0,25,0c7.89,0,15.77-.1,23.66-.11v4.71a1.72,1.72,0,0,0,.21.84l0,2.77c0,2.19,0,4.37.05,6.56,0,3.79.08,7.58.08,11.37,0,7.18,0,14.36,0,21.55q-.06,25.56.05,51.14.15,27.38.19,54.74c0,16.62,0,33.24,0,49.86,0,1.13,0,2.27,0,3.41v1.46c0,.35,0,.71,0,1.06a.92.92,0,0,0,0,.4c-.05,1.11,0,2.22,0,3.33v6.89c0,4.38,0,8.75,0,13.14h-5.39c-7.75,0-15.5,0-23.25-.07-4.05,0-8.1-.13-12.15-.14l-12.6,0c-18.15,0-36.29-.14-54.42-.18-18.58-.05-37.16,0-55.73,0-17.1,0-34.21,0-51.32,0-16.81,0-33.62.15-50.44.26-8.06.05-16.13.09-24.19.22-1.74,0-3.48,0-5.23.06h-2.72l-.78,0c-.86-.07-1.74,0-2.61,0h-9.79c0-4.61,0-9.21,0-13.82,0-3.69.13-7.38.2-11.07.09-4.25.1-8.51.14-12.76q.06-6.69.13-13.37c.18-18.74.16-37.49.21-56.23.06-18.38,0-36.75-.11-55.12,0-9.07-.11-18.15-.15-27.22q-.06-14.61-.09-29.22c0-.73,0-1.47,0-2.2a1.66,1.66,0,0,0,.25-.34,2.24,2.24,0,0,0,.25-1.55q0-5.07,0-10.11h10l.7,0h0l.3,0,.16,0,.62-.08.27,0,.17,0h0l.44,0a5.21,5.21,0,0,0,.69-.1h.06a4.71,4.71,0,0,0,1.58-.4,16.36,16.36,0,0,1,2.1.05Zm-3.31.3-.28,0,.28,0Z" style="fill:#2c2c2c"/><path d="M349.47,139.54q-40.19,0-80.38.13c-13.09,0-26.18.1-39.28.1l-41.77,0c-12.68,0-25.36.07-38,.08l-8,0c-2.13,0-4.25,0-6.38.08-.63,0-1.26,0-1.89,0h-.76l-4,0q-5.31,0-10.62,0H95.54a1.21,1.21,0,1,0,0,2.41c12,0,24,0,36,.05,4.25,0,8.5.1,12.75.11l18.56,0c26.88.09,53.77,0,80.66.08,12.83,0,25.65.09,38.48.12q20.58.06,41.15.07,20.27,0,40.54,0,20.61,0,41.21-.14,39.33-.16,78.65-.13c11,0,22-.09,33-.12,5.38,0,10.77,0,16.16-.06,3.08,0,6.16,0,9.24-.07,1.44,0,2.89-.06,4.33-.07,2.28,0,4.55,0,6.82,0l1.39,0a.41.41,0,0,0,.11.07,1.32,1.32,0,0,0,.62.19h.09a2,2,0,0,0,.95-.21l.69,0h.56a1,1,0,0,0,.3,0h.15a10.29,10.29,0,0,1,1.36,0h0a14.11,14.11,0,0,0,1.95,0c.25,0,.5,0,.76,0l.38,0a1.46,1.46,0,0,0,.62-.09.94.94,0,0,0,0-1.81,2.86,2.86,0,0,0-.93-.11l-.76,0a17.19,17.19,0,0,0-2,0h0a8.68,8.68,0,0,1-1.14,0h-.36a1.06,1.06,0,0,0-.31,0h-.59l-.66,0a2,2,0,0,0-.95-.2h0a1.33,1.33,0,0,0-.34.05,1.71,1.71,0,0,0-.39.17l-.06,0h0l-4.41,0c-3.79,0-7.58-.1-11.37-.13-10.62-.08-21.25,0-31.87-.13-11.73-.09-23.46-.07-35.19-.09l-40.35,0c-26.38,0-52.75-.2-79.12-.2Z" style="fill:#2c2c2c"/><path d="M92.65,139.92c-.35,0-.7,0-1.05,0H86.67a1.36,1.36,0,0,0-1.34,1.35,1.35,1.35,0,0,0,1.34,1.34h4.78c.4,0,.8,0,1.2,0a1.66,1.66,0,0,0,.8,0c.5,0,1,0,1.49,0l2.37,0,4.53,0c3.13,0,6.27,0,9.4-.08s6.18-.14,9.26-.25,6-.11,9-.13h2.81l1.47,0c.15,0,.31,0,.45,0l.31,0a1.86,1.86,0,0,0,.34-.07.6.6,0,0,0,.46-.43.57.57,0,0,0-.1-.52.59.59,0,0,0-.37-.22,4.54,4.54,0,0,0-.74-.1c-.31,0-.61,0-.91-.05h-2.28l-4.6,0c-1.47,0-2.93,0-4.4-.07s-3-.11-4.55-.16c-6.2-.18-12.41-.18-18.61-.24l-2.89,0h-1.4c-.34,0-.69,0-1,0a1.92,1.92,0,0,0-.48-.07,1.75,1.75,0,0,0-.32,0Z" style="fill:#2c2c2c"/><path d="M94.55,115.92a18.47,18.47,0,0,0-.43,2.45c0,.36-.05.71-.07,1.07,0,.68-.08,1.35-.11,2-.06,1.29-.1,2.59-.15,3.87s-.06,2.36-.07,3.54c0,.6,0,1.2,0,1.8a4.36,4.36,0,0,0,.5,2.07,1.15,1.15,0,0,0,1.25.5,1.09,1.09,0,0,0,.8-1.06c-.05-.5-.12-1-.13-1.51s0-1.07,0-1.6c0-1.18,0-2.36.08-3.54s.1-2.45.14-3.68.11-2.58.26-3.86a13.06,13.06,0,0,1,.3-1.41,1.25,1.25,0,0,0-.87-1.52,1.12,1.12,0,0,0-.31,0,1.25,1.25,0,0,0-1.21.91Z" style="fill:#2c2c2c"/><path d="M95.68,112.91a2.55,2.55,0,0,0-.89,1.39,1.88,1.88,0,0,0,.41,1.52.36.36,0,0,0,.5.13.37.37,0,0,0,.13-.5,3.2,3.2,0,0,1-.29-.51.75.75,0,0,1-.05-.16v-.15a1.48,1.48,0,0,1,.1-.27l0,.09a4.17,4.17,0,0,1,.26-.46,2.28,2.28,0,0,1,.22-.22,2.6,2.6,0,0,1,.36-.21,3.58,3.58,0,0,1,.56-.16,3,3,0,0,1,.67,0,5,5,0,0,1,1.07.31,13.94,13.94,0,0,1,2.45,1.49l.66.56a7.08,7.08,0,0,1,.63.59,9.46,9.46,0,0,1,.68.74,7.34,7.34,0,0,1,.73,1.24,12.08,12.08,0,0,1,.69,2.64,13.34,13.34,0,0,1,.08,3.22,9.67,9.67,0,0,1-.54,2,10.89,10.89,0,0,1-1.21,2,10.1,10.1,0,0,1-1.42,1.43,10.81,10.81,0,0,1-2.07,1.17,16.51,16.51,0,0,1-1.73.53c-.53.13-1.09.2-1.63.28a1.08,1.08,0,0,0-.67.51,1.11,1.11,0,0,0,1.26,1.64,15.47,15.47,0,0,0,3.69-1.2,9,9,0,0,0,.86-.48c.29-.16.57-.35.85-.54a9.7,9.7,0,0,0,1.65-1.48,11.06,11.06,0,0,0,2.28-3.94,9.52,9.52,0,0,0,.41-2.19,11.73,11.73,0,0,0-.1-2.44,10.9,10.9,0,0,0-1.4-4.53,9.24,9.24,0,0,0-2.43-2.44c-.29-.21-.57-.41-.87-.6a13.66,13.66,0,0,0-2-1.08,5.65,5.65,0,0,0-2-.49h-.15a3,3,0,0,0-1.71.55Zm-.18,1.63a.07.07,0,0,1,0,0,.07.07,0,0,0,0,0Zm0,.32,0,.08,0-.08Zm7.65,2.3,0,0,0,0Zm1.4,3.91v.07a.15.15,0,0,1,0-.07Zm.06,3.17v.08s0,0,0-.08ZM104,126.3l0,.06,0-.06Z" style="fill:#2c2c2c"/><path d="M115.24,123.22a8.14,8.14,0,0,0-1.95.52,9.74,9.74,0,0,0-1.46.69,1.23,1.23,0,0,0-.53.7,10,10,0,0,0-.94,1.28,6.84,6.84,0,0,0-1.09,4.17,4,4,0,0,0,.9,2.18,3.66,3.66,0,0,0,.76.71,5.1,5.1,0,0,0,1.12.56,4.51,4.51,0,0,0,2.25.14,7.19,7.19,0,0,0,2.29-.76,8.63,8.63,0,0,0,1.82-1.3,8.49,8.49,0,0,0,1.49-1.78,8.08,8.08,0,0,0,.88-2,5.4,5.4,0,0,0,.2-2.49,3.09,3.09,0,0,0-1.1-1.87,4.14,4.14,0,0,0-1-.6,5,5,0,0,0-1.33-.31q-.3,0-.6,0a10.49,10.49,0,0,0-1.67.16Zm2.19,2.12a5.06,5.06,0,0,1,.67.17,3.79,3.79,0,0,1,.34.2l.17.16.11.19c0,.09,0,.18.07.27a4.43,4.43,0,0,1,0,.73,7.07,7.07,0,0,1-.39,1.34,8.17,8.17,0,0,1-.8,1.37,10.28,10.28,0,0,1-1.2,1.18,8.51,8.51,0,0,1-1.39.83,6.12,6.12,0,0,1-1.27.35,4.69,4.69,0,0,1-.75,0,4,4,0,0,1-.59-.16,2.87,2.87,0,0,1-.48-.28,3.06,3.06,0,0,1-.36-.36,3.62,3.62,0,0,1-.24-.43,3.23,3.23,0,0,1-.14-.51,4.69,4.69,0,0,1,0-1.06,6,6,0,0,1,.35-1.26,8.6,8.6,0,0,1,.9-1.48,1.1,1.1,0,0,0,.57-.16,8.16,8.16,0,0,1,1-.52,10.72,10.72,0,0,1,2.09-.55,7.28,7.28,0,0,1,1.32,0Zm-.89,5.5-.08,0,.08,0Z" style="fill:#2c2c2c"/><path d="M127,124a7.49,7.49,0,0,0-1.78,1.29,11.53,11.53,0,0,0-1.42,1.54,12.28,12.28,0,0,0-1.25,1.88,6.35,6.35,0,0,0-.73,2.16A2.3,2.3,0,0,0,122,132a2.58,2.58,0,0,0,.78,1,5.71,5.71,0,0,0,.84.54,3.83,3.83,0,0,0,.56.22,2.51,2.51,0,0,0,.62.08,4.75,4.75,0,0,0,1.19-.1,8.44,8.44,0,0,0,1.23-.28c.53-.15,1-.35,1.56-.53,1-.36,2.05-.73,3.09-1l2.86-.9a1.11,1.11,0,0,0-.59-2.15c-1.41.42-2.82.84-4.22,1.28-.66.21-1.3.47-1.95.7a14.76,14.76,0,0,1-2.73.82,3.62,3.62,0,0,1-.57,0l-.11,0a3.29,3.29,0,0,1-.52-.29l-.13-.12,0-.05v0a2.53,2.53,0,0,1,0-.28,6.88,6.88,0,0,1,.34-1.09,11.26,11.26,0,0,1,1.34-2.16,11.59,11.59,0,0,1,1.71-1.72,6.59,6.59,0,0,1,.85-.51,3.57,3.57,0,0,1,.66-.18,3.53,3.53,0,0,1,.46,0,2.13,2.13,0,0,1,.43.13,7.75,7.75,0,0,1,.9.59l-.07,0,.06,0a.88.88,0,0,0,.57.23.82.82,0,0,0,.58-.23.84.84,0,0,0,.24-.58.76.76,0,0,0-.24-.57c-.28-.22-.55-.44-.84-.63a3.84,3.84,0,0,0-.6-.33,3.56,3.56,0,0,0-1.21-.28h-.19A4.3,4.3,0,0,0,127,124Zm-2.77,5.62,0,.08,0-.08Zm-.43,1.31v.12a.49.49,0,0,1,0-.12Z" style="fill:#2c2c2c"/><path d="M136.54,125.43a14.78,14.78,0,0,0-.42,2.3,10.81,10.81,0,0,0,.15,2.54,6.54,6.54,0,0,0,.71,2.16,2.87,2.87,0,0,0,.87.93,3,3,0,0,0,1.2.5,4.41,4.41,0,0,0,2.62-.44,7.33,7.33,0,0,0,2.12-1.55,8.27,8.27,0,0,0,1.15-1.48q.18.63.39,1.26a12,12,0,0,0,.51,1.24,5.14,5.14,0,0,0,1,1.5,1.21,1.21,0,0,0,1.72,0,1.19,1.19,0,0,0,.36-.86,1.26,1.26,0,0,0-.36-.86l-.12-.15a8.64,8.64,0,0,1-.82-1.53,26.9,26.9,0,0,1-1.27-4.48c0-.15.05-.31.07-.46a1.63,1.63,0,0,0,0-.66,1.06,1.06,0,0,0-.74-.78,1.18,1.18,0,0,0-.56,0,1.22,1.22,0,0,0-.48.28,1.68,1.68,0,0,0-.41.93,3.46,3.46,0,0,0-.06.71v0c-.12.35-.26.7-.4,1a10.11,10.11,0,0,1-1.09,1.92,8.7,8.7,0,0,1-1.17,1.18,7.4,7.4,0,0,1-.93.56,4,4,0,0,1-.75.22h-.31l-.16,0-.15-.09-.1-.1c0-.08-.1-.15-.14-.23a8.35,8.35,0,0,1-.38-1.53,9.31,9.31,0,0,1,0-2.11c.07-.44.18-.87.29-1.3a1.21,1.21,0,0,0-.84-1.48,1.12,1.12,0,0,0-.31,0,1.2,1.2,0,0,0-1.17.89Zm11,5.29a.61.61,0,0,1,.05.12l-.05-.12Z" style="fill:#2c2c2c"/><path d="M155.67,122.27a1.51,1.51,0,0,0-.7.36,4.71,4.71,0,0,0-.7.78c-.18.25-.35.5-.51.77a11.28,11.28,0,0,0-.55,1.1,21.75,21.75,0,0,0-1.16,3c-.06.17-.11.35-.16.53,0-.43-.09-.86-.13-1.29s-.12-1-.19-1.5c0-.28-.07-.55-.11-.83s-.05-.33-.08-.49a1.8,1.8,0,0,0-.2-.73.64.64,0,0,0-1-.13.66.66,0,0,0-.16.28h0a.15.15,0,0,0,0,.07h0a7.23,7.23,0,0,0,0,1.14l.06.89.09,1.43c0,1.08.08,2.17.16,3.26,0,.53.07,1.05.11,1.58a5.54,5.54,0,0,0,.07.57,1.2,1.2,0,0,0,.33.81,1.14,1.14,0,0,0,.49.3,1.08,1.08,0,0,0,.59,0,1.55,1.55,0,0,0,1-1.06c.25-.72.42-1.46.62-2.19.14-.56.3-1.12.46-1.68s.29-1,.46-1.49.31-.85.47-1.28c.1-.22.2-.44.29-.67a7.35,7.35,0,0,1,.74-1.31l0,0a16.48,16.48,0,0,1,.81,3.81c0-.06,0-.12,0-.18.09.89.17,1.78.25,2.67,0,.4.07.8.12,1.21,0,.22,0,.43.09.64l.06.19a1.49,1.49,0,0,0,.34.6,2.51,2.51,0,0,0,.31.26,1.41,1.41,0,0,0,.64.16,1.61,1.61,0,0,0,1.06-.54l.26-.33c.09-.14.18-.28.26-.43a5.92,5.92,0,0,0,.36-.87c.1-.3.18-.61.26-.91l.33-1.38c.1-.42.18-.83.27-1.24s.09-.53.15-.79l.21.44c.36.91.66,1.85,1,2.78.07.21.15.42.23.63a6.53,6.53,0,0,0,.68,1.44,3.31,3.31,0,0,0,.59.65,3.71,3.71,0,0,0,1,.54,5.52,5.52,0,0,0,1,.29.83.83,0,0,0,.44-1.61,5.69,5.69,0,0,1-.69-.25,4.32,4.32,0,0,1-.56-.3l-.31-.3a8.91,8.91,0,0,1-.78-1.54c-.27-.69-.53-1.38-.81-2.05l-.3-.72a7,7,0,0,0-.36-.66,4.19,4.19,0,0,0-.42-.59,1.31,1.31,0,0,0-1.09-.46.63.63,0,0,0-.33.09.66.66,0,0,0-.22.15,1.5,1.5,0,0,0-.35.51c-.16.36-.29.75-.42,1.13s-.27.81-.4,1.22-.32,1-.49,1.49a30.29,30.29,0,0,0-.82-5.37,6.27,6.27,0,0,0-.32-.92,4.52,4.52,0,0,0-.52-1,2,2,0,0,0-.47-.48l-.15-.11-.39-.17a.93.93,0,0,0-.31,0,1.86,1.86,0,0,0-.36,0Zm-.15,1.75a.49.49,0,0,1,.14.11l-.14-.11Zm-4.26,1.67a.2.2,0,0,1,0,.07v-.07Zm3.6.86-.06.13.06-.13Zm6.32.44,0,0,0,0Z" style="fill:#2c2c2c"/><path d="M171.17,122.72a6.42,6.42,0,0,0-1.13.35,6.61,6.61,0,0,0-1.17.56,4.37,4.37,0,0,0-1.48,1.71,5,5,0,0,0-.62,2.32,2.34,2.34,0,0,0,0,.38h-.05a1.08,1.08,0,1,0,0,2.16c.32,0,.64,0,.95,0a11.85,11.85,0,0,0,1.37,1.7,7,7,0,0,0,3.64,2.12,7.36,7.36,0,0,0,3.88-.48c1.13-.4,2.25-.83,3.4-1.19a1.2,1.2,0,0,0-.64-2.31c-.75.23-1.49.48-2.23.76a17.82,17.82,0,0,1-3.08,1,6.17,6.17,0,0,1-.86,0,6,6,0,0,1-1-.26,7.73,7.73,0,0,1-1.11-.66,10.21,10.21,0,0,1-1.24-1.22l.75-.31.93-.39c.3-.13.58-.3.87-.45a13.11,13.11,0,0,0,1.44-.87,10.52,10.52,0,0,0,2.11-1.83,2.2,2.2,0,0,0,.59-1.28,2.16,2.16,0,0,0-.09-.62,1.53,1.53,0,0,0-.38-.62,3.87,3.87,0,0,0-.45-.35,2.7,2.7,0,0,0-.55-.24,3.71,3.71,0,0,0-.48-.1,8.69,8.69,0,0,0-.88-.07h-.19a13.31,13.31,0,0,0-2.36.25Zm2.55,2.08c-.26.25-.53.48-.81.71a14.27,14.27,0,0,1-1.61,1c-.31.16-.62.35-.94.49l-1,.42-.63.23v-.27a4.63,4.63,0,0,1,.22-.75,3.36,3.36,0,0,1,.4-.69,3.59,3.59,0,0,1,.38-.4,3.84,3.84,0,0,1,.39-.22,7.91,7.91,0,0,1,1.71-.48,11.58,11.58,0,0,1,1.86-.08Zm-2,.09h0Zm-2.71,1.59,0,.07,0-.07Zm.24,1-.08,0,.08,0ZM171,130.7l.07.06-.07-.06Z" style="fill:#2c2c2c"/><path d="M183.41,124a3.27,3.27,0,0,0-.3.35l-.18-.13a1.15,1.15,0,0,0-1.57.41,7.14,7.14,0,0,0-.74,1.94,10.37,10.37,0,0,0-.15,1.76,12.41,12.41,0,0,0,.09,1.61,5.75,5.75,0,0,0,.14.83,1.43,1.43,0,0,0,1,1,1.24,1.24,0,0,0,1.26-.34,2,2,0,0,0,.44-.9,7.93,7.93,0,0,0,.17-1.07l.09-.72c.06-.39.12-.78.21-1.16a10.79,10.79,0,0,1,.36-1.14,6.34,6.34,0,0,1,.42-.82,10.13,10.13,0,0,1,1,.69l.81.55c.52.36,1,.71,1.57,1.08.23.19.46.37.68.57a13.82,13.82,0,0,1,1.25,1.29,9.65,9.65,0,0,1,1.11,1.85,16.57,16.57,0,0,1,.7,2.62,1,1,0,0,0,1.75.23,1.06,1.06,0,0,0,.1-.74c-.09-.61-.19-1.22-.34-1.83a9.58,9.58,0,0,0-2.19-4.06,15.44,15.44,0,0,0-3-2.51c-.46-.3-.92-.62-1.38-.93-.26-.18-.52-.35-.79-.51a2.66,2.66,0,0,0-1.32-.38,1.62,1.62,0,0,0-1.15.43Zm1.22,1.62h0Zm0,0,.1,0-.1,0Zm6.34,5.87,0,.07a.25.25,0,0,1,0-.07Z" style="fill:#2c2c2c"/><path d="M201.77,121.33c-.75.26-1.49.55-2.23.82s-1.55.52-2.33.77c-1.51.48-3.07.79-4.6,1.15a.95.95,0,0,0,.5,1.83c1.52-.36,3-.66,4.56-1.07s3.15-.86,4.67-1.43a1.12,1.12,0,0,0,.64-.49,1.14,1.14,0,0,0,.11-.83,1.12,1.12,0,0,0-1-.8.93.93,0,0,0-.29,0Z" style="fill:#2c2c2c"/><path d="M197.47,120.09c.08.84.19,1.67.32,2.51.11.67.25,1.34.39,2,.25,1.27.43,2.54.62,3.82.1,1,.2,2,.28,3a23.39,23.39,0,0,0,.28,3.34,1.16,1.16,0,0,0,2.24-.62,8,8,0,0,1-.28-1.27c-.25-2-.47-4-.79-6-.15-.92-.33-1.83-.52-2.74-.11-.55-.23-1.1-.34-1.65s-.14-.8-.2-1.2-.09-.78-.13-1.18a1,1,0,0,0-.27-.66,1,1,0,0,0-.66-.28.94.94,0,0,0-.94.94Zm3.84,12.69v0Zm0,.19,0,.1,0-.1Z" style="fill:#2c2c2c"/><path d="M525.45,118c-.06.87-.11,1.75-.21,2.61s-.19,1.48-.28,2.22c-.31,2.25-.64,4.48-1,6.73l-.45,3.27c-.08.64-.16,1.28-.23,1.92a10.19,10.19,0,0,0-.07,1.83,1.19,1.19,0,1,0,2.38,0,18.45,18.45,0,0,1,.23-2.45h0c.35-2.62.74-5.24,1.14-7.85.18-1.24.35-2.48.5-3.73.09-.67.2-1.34.26-2,.07-.84.15-1.69.2-2.54a1.26,1.26,0,0,0-1.26-1.26,1.28,1.28,0,0,0-1.25,1.26Zm.38,16.29v0l0,.13a1.11,1.11,0,0,0,0-.17Z" style="fill:#2c2c2c"/><path d="M527.11,119.91a.87.87,0,0,0,.61,1.06c.89.27,1.78.53,2.64.88a4.09,4.09,0,0,1,.68.38,1,1,0,0,1,.18.17,2.5,2.5,0,0,1,.21.35,2.46,2.46,0,0,1,.11.45,3.57,3.57,0,0,1,0,.73l-.06.28a3.21,3.21,0,0,1-.19.31,4.85,4.85,0,0,1-.55.56,9.25,9.25,0,0,1-1.67.9l-.85.32-.44.15a3,3,0,0,0-.93.38.85.85,0,0,0-.42.71.87.87,0,0,0,.42.73,3.71,3.71,0,0,0,1.42.35c.34.06.68.12,1,.21s.78.23,1.16.36.54.21.81.31a11.71,11.71,0,0,1,1.8,1,4.59,4.59,0,0,1,.54.54,1.6,1.6,0,0,1,.4.91,2.22,2.22,0,0,1,0,.37,2.33,2.33,0,0,1-.07.25,4.22,4.22,0,0,1-.39.61,7.72,7.72,0,0,1-1,1,5.42,5.42,0,0,1-1,.57l.21-.08a11.1,11.1,0,0,1-2.46.75,9.48,9.48,0,0,1-1.41,0,.93.93,0,0,0-.93.93.94.94,0,0,0,.93.93c.27,0,.54,0,.82,0a8.14,8.14,0,0,0,1-.1,9.46,9.46,0,0,0,1.88-.56,8.27,8.27,0,0,0,1.72-.83,6.91,6.91,0,0,0,1.38-1.32c.19-.23.36-.47.53-.71a3,3,0,0,0,.38-.76,2.38,2.38,0,0,0,.13-.79,4.78,4.78,0,0,0-.06-.53,4,4,0,0,0-.09-.48,3.83,3.83,0,0,0-.92-1.55,3.48,3.48,0,0,0-.64-.57,8,8,0,0,0-.77-.52,13.82,13.82,0,0,0-1.39-.69c-.46-.19-.91-.36-1.38-.52l-.31-.1a8.9,8.9,0,0,0,1.26-.66,5.08,5.08,0,0,0,1.12-1,2.74,2.74,0,0,0,.63-1.29,3.94,3.94,0,0,0-.46-2.79,4.19,4.19,0,0,0-2.13-1.46,22.73,22.73,0,0,0-2.42-.78.62.62,0,0,0-.23,0,.9.9,0,0,0-.84.64ZM529,126l-.1.05.1-.05Zm2.3,3.54.07,0-.07,0Z" style="fill:#2c2c2c"/><path d="M543.7,120.48q-.75,1.48-1.47,3c-.4.83-.75,1.69-1.15,2.53l-.34.69a2.77,2.77,0,0,0-.37,1.81,1.88,1.88,0,0,0,.18.5c.1.14.21.27.32.41s.22.18.34.26a2.76,2.76,0,0,0,.52.25c.27.11.54.19.81.27.91.26,1.81.55,2.69.89a8.55,8.55,0,0,1,1.37.73,4.27,4.27,0,0,1,.36.38,4.42,4.42,0,0,1,.34.6,6.32,6.32,0,0,1,.24.85,3.21,3.21,0,0,1,0,.62c0,.2-.09.39-.15.59l-.11.19-.18.17-.34.19a9.29,9.29,0,0,1-1.78.45,10.59,10.59,0,0,1-2.25-.12c-.54-.07-1.08-.15-1.62-.25a1.31,1.31,0,0,0-1,.13,1.25,1.25,0,0,0,.3,2.29,18.25,18.25,0,0,0,1.82.34,10.4,10.4,0,0,0,2.84.11,11.43,11.43,0,0,0,2.08-.49,4.47,4.47,0,0,0,1.81-1.11,3.61,3.61,0,0,0,.84-1.72,5.39,5.39,0,0,0,0-2.08,5.66,5.66,0,0,0-.65-1.73,4.73,4.73,0,0,0-1.36-1.49,9,9,0,0,0-2.15-1.08c-.49-.2-1-.37-1.5-.54l-1.18-.37c.87-2,1.84-4,2.82-6a1.26,1.26,0,0,0-.44-1.69,1.19,1.19,0,0,0-.62-.16,1.16,1.16,0,0,0-1.06.61Zm-.86,7.65h0l0,0,0,0Z" style="fill:#2c2c2c"/><path d="M287.91,451.2c-2,0-4,0-5.94.06-1,0-2.07,0-3.1.09l-1.73.08c-.43,0-.87,0-1.3.07l-1.67.15c-.46,0-.93.05-1.39.11l-3.06.41c-1.07.14-2.13.34-3.19.51s-2,.36-2.94.54l-2.87.56c-.42.08-.84.21-1.27.31l-1,.23-.47.12-1.58.48c-.38.11-.77.22-1.14.36-.94.32-1.88.64-2.79,1l-1.69.7c-.42.17-.81.37-1.21.57l-1.5.72-.32.18-1,.57c-.35.19-.71.37-1.05.58l-1.61,1c-.85.54-1.69,1.12-2.53,1.68L237,465.37c-1.66,1.12-3.32,2.25-4.92,3.45-.4.31-.8.63-1.18,1a14.67,14.67,0,0,0-1.11,1,12.67,12.67,0,0,0-1,1.08c-.32.38-.62.79-.9,1.2a9.58,9.58,0,0,0-1.19,2.72,7.92,7.92,0,0,0-.28,2.05q0,.84,0,1.68a.73.73,0,0,0,.73.73.74.74,0,0,0,.74-.73c0-.85,0-1.7.1-2.54a9.09,9.09,0,0,1,.52-1.78c.13-.28.27-.54.42-.8s.35-.53.54-.79a15.64,15.64,0,0,1,1.22-1.35c.53-.5,1.08-1,1.64-1.41,1.39-1.07,2.84-2.06,4.29-3l4.89-3.26,2.46-1.65c.79-.53,1.61-1,2.42-1.54s1.66-.93,2.49-1.39c.32-.18.66-.33,1-.49l1.51-.73,2.11-.86c.26-.11.53-.19.79-.28l1.58-.56.73-.23,1.59-.48c.8-.24,1.62-.41,2.43-.61s1.41-.3,2.11-.43l2.22-.43c.76-.14,1.51-.29,2.27-.41l2.66-.44,2.91-.38c.4-.05.81-.07,1.21-.11l1.85-.16,1.12-.06,1.91-.1c1-.06,2.07-.06,3.1-.09,2,0,4-.06,5.94-.07,1.81,0,3.62,0,5.43,0l1.91,0h1.06l3.34.12c.76,0,1.51.07,2.27.12l2.66.15,3.49.24c.88.06,1.76.15,2.63.23s1.5.13,2.24.21l3.09.36,3.21.48c.9.14,1.8.34,2.7.52l1.37.27c.39.08.78.19,1.17.29.92.22,1.85.43,2.76.68,3.82,1.09,7.64,2.19,11.43,3.38l5.91,1.89c1,.33,2.07.7,3.12,1.05l2.67.89c1.74.58,3.47,1.21,5.19,1.85.91.34,1.83.69,2.75,1s1.95.69,2.91,1.06l1.77.7c.46.17.93.34,1.38.53l3,1.28c1.8.77,3.59,1.55,5.39,2.34s3.66,1.67,5.48,2.52c.92.43,1.82.9,2.72,1.34s1.76.95,2.63,1.42c1.74.94,3.42,2,5.1,3,1.52.92,3,1.86,4.51,2.79.69.44,1.38.88,2.08,1.31s1.57,1,2.34,1.46,1.68,1.09,2.51,1.65c.65.44,1.29.89,1.93,1.34,1.53,1.05,3,2.14,4.52,3.25.69.54,1.37,1.09,2,1.64a.92.92,0,0,0,.63.26.88.88,0,0,0,.63-.26.89.89,0,0,0,0-1.26c-.85-.73-1.71-1.44-2.61-2.12s-1.63-1.23-2.46-1.82c-1.61-1.16-3.25-2.29-4.9-3.41-.71-.48-1.44-.93-2.17-1.38L395,482.69c-1.71-1.08-3.42-2.14-5.14-3.2L387.45,478c-.83-.5-1.69-1-2.53-1.45s-1.82-1-2.73-1.48c-.34-.18-.7-.35-1.05-.52l-1.74-.86c-.89-.44-1.81-.85-2.72-1.27l-2.75-1.24c-1.8-.81-3.62-1.59-5.44-2.36l-2.76-1.16c-.85-.36-1.72-.7-2.59-1s-1.74-.68-2.62-1l-2.72-1q-3-1.1-5.93-2.16l-1.18-.4-1.93-.64-2.71-.91c-3.77-1.26-7.57-2.43-11.38-3.57q-2.67-.81-5.35-1.58c-.85-.24-1.7-.49-2.56-.7l-2-.48c-.35-.09-.7-.19-1.05-.26l-3.41-.68q-.37-.07-.75-.12l-2.14-.32c-.88-.13-1.75-.24-2.63-.34s-1.9-.25-2.85-.33l-3.57-.31c-1-.08-2-.14-3-.21-.85-.06-1.69-.11-2.54-.15s-1.89-.13-2.83-.16l-3.6-.13c-1,0-2,0-3.05,0h-5.43Zm79.39,19.1.1,0-.1,0Zm-135,.54-.11.09.11-.09Z" style="fill:#2c2c2c"/><path d="M224.06,475.48a.73.73,0,0,0-.19.73,2.9,2.9,0,0,0,.36.78l.41.69.86,1.44a.71.71,0,0,0,.95.25.68.68,0,0,0,.3-.4,10.33,10.33,0,0,0,1.27.68l1.45.68q3,1.4,5.94,3c1.45.78,2.85,1.64,4.23,2.52l2,1.27c.71.44,1.44.86,2.12,1.35a2.61,2.61,0,0,1,.24.23,2.11,2.11,0,0,1,.16.3.89.89,0,0,0,1.62-.68,2.26,2.26,0,0,0-.34-.78,3.06,3.06,0,0,0-.75-.73c-.23-.17-.46-.34-.71-.49-.45-.29-.91-.56-1.37-.85l-2.6-1.61c-1-.6-2-1.18-3-1.74s-1.87-1-2.83-1.47c-1.28-.62-2.58-1.2-3.88-1.79-.65-.3-1.31-.58-2-.87a10.09,10.09,0,0,1-1.69-1l.16.13c-.31-.25-.61-.49-.9-.76l-.35-.36-.18-.19a1.54,1.54,0,0,0-.65-.44.58.58,0,0,0-.19,0,.75.75,0,0,0-.53.22Z" style="fill:#2c2c2c"/><path d="M245.9,488.92c-.44.43-.88.85-1.35,1.24s-.92.73-1.39,1.09c-.81.63-1.62,1.28-2.4,1.95-.39.32-.79.64-1.16,1l-1.43,1.38c-.3.29-.62.57-.9.87l-1.36,1.5c-1.3,1.43-2.54,2.91-3.79,4.38-.59.71-1.16,1.45-1.73,2.17l-1.67,2.16c-.18.22-.35.43-.54.64a.93.93,0,0,0,1.32,1.32,15.86,15.86,0,0,0,1.62-1.94l1.25-1.63,0,.05.07-.09.08-.11-.05.07c.67-.85,1.34-1.69,2-2.53l1-1.14c.31-.36.61-.74.93-1.1s.87-1,1.31-1.46l.68-.77a4,4,0,0,1,.28-.3l1.32-1.28c.33-.33.66-.67,1-1l1.75-1.51c.48-.41,1-.8,1.49-1.2s.85-.65,1.26-1c.26-.21.53-.41.77-.64l.91-.87a.88.88,0,0,0,0-1.25.87.87,0,0,0-.62-.26.89.89,0,0,0-.62.26Zm-17.22,17.77-.08.1.08-.1Zm3.73-1.7,0,0a.27.27,0,0,0,.07-.08l0,0Z" style="fill:#2c2c2c"/><path d="M231.25,507.09a1,1,0,0,0-.44.56,1,1,0,0,0,.1.72,1,1,0,0,0,.56.44l1.14.46a16.63,16.63,0,0,1,2.25,1.27c.65.43,1.29.88,2,1.28.3.18.6.34.9.49a14,14,0,0,0,1.4.55c.86.32,1.73.65,2.59,1s1.8.74,2.71,1.09,1.6.64,2.41.94c1,.37,1.93.73,2.91,1.08.35.13.71.24,1.07.36s.81.29,1.22.41c.94.28,1.87.56,2.82.81l1.57.42c.48.13,1,.22,1.44.32,1.94.44,3.89.77,5.85,1.09l5.7.93c1.79.28,3.57.58,5.36.83,1,.14,2,.3,3,.41l3.41.4c1.76.21,3.53.38,5.29.53.9.08,1.79.17,2.69.22l3.57.2c1.74.09,3.47.12,5.21.19,3.91.16,7.82.28,11.73.31,4.1,0,8.19.05,12.28,0,1.79,0,3.58-.09,5.37-.15l1-.06,2.16-.13c.74-.05,1.46-.1,2.2-.17,4-.39,7.93-.84,11.89-1.32,1.9-.23,3.79-.47,5.69-.68l6.27-.64,5.16-.46c1-.1,2.05-.17,3.07-.29l3.39-.39c3.13-.36,6.25-.7,9.38-1,1.43-.15,2.86-.29,4.28-.46.89-.11,1.78-.2,2.67-.32l2.37-.33c2.7-.34,5.4-.64,8.09-1s5.43-.91,8.15-1.3l2.49-.27c1-.08,2-.15,3-.27a1.05,1.05,0,0,0,.69-.29,1,1,0,0,0,.29-.68,1,1,0,0,0-1-1,36,36,0,0,0-7.54.53l-3.5.59c-1.33.23-2.65.43-4,.62-3.17.41-6.35.79-9.52,1.24-3.94.47-7.88.89-11.83,1.32l-5.28.62c-.89.11-1.78.22-2.68.31l-3.41.32-5.59.52c-2.08.21-4.16.44-6.25.67-1.66.18-3.33.42-5,.61l-6.49.76c-1.93.23-3.86.42-5.79.61-.92.09-1.85.12-2.78.18-.76.05-1.52.1-2.28.12l-3.67.12c-.86,0-1.71,0-2.57,0h-6.23c-3.75,0-7.5-.06-11.24-.16-2,0-4-.13-6-.21-1.81-.07-3.62-.12-5.43-.22-1.07,0-2.14-.09-3.21-.18s-2.33-.18-3.5-.3q-3.6-.37-7.21-.8h.08l-3-.41c-.93-.12-1.86-.28-2.79-.43l-5.55-.88c-1.93-.32-3.85-.62-5.76-1-1-.18-2-.39-3-.61s-1.92-.48-2.88-.73a84.1,84.1,0,0,1-8.16-2.75c-1.41-.53-2.82-1.1-4.23-1.67-1.23-.5-2.5-.93-3.75-1.38a19.81,19.81,0,0,1-2.84-1.68,17.05,17.05,0,0,0-1.58-1c-.75-.38-1.54-.69-2.32-1a.59.59,0,0,0-.23,0,1,1,0,0,0-.49.13Zm7.53,3.58.1.05-.1-.05Zm164.53,4.95-.08,0,.08,0ZM386.83,518h0Z" style="fill:#2c2c2c"/><path d="M429.26,468.75a9.5,9.5,0,0,0-2.67,1.92c-.74.7-1.44,1.46-2.12,2.21s-1.48,1.62-2.2,2.45-1.56,1.83-2.33,2.76q-2,2.39-3.88,4.82l-1.3,1.63c-.34.42-.65.87-1,1.3-.64.88-1.27,1.77-1.89,2.66a11.33,11.33,0,0,0-1.23,2.2,8.13,8.13,0,0,0-.42,2.45.83.83,0,0,0,.83.83.85.85,0,0,0,.84-.83c0-.29,0-.57.06-.85a5.34,5.34,0,0,1,.29-1.11,23.42,23.42,0,0,1,2.22-3.52c.48-.71,1-1.38,1.51-2.07l-.12.16c2.73-3.48,5.44-7,8.36-10.3.73-.83,1.46-1.66,2.21-2.47a28.22,28.22,0,0,1,2.48-2.41l1-.71a.65.65,0,0,0,.24-.89.73.73,0,0,0-.39-.3l-.15,0a.91.91,0,0,0-.35.09Z" style="fill:#2c2c2c"/><path d="M430.78,469.68c-.3,1.25-.6,2.5-.85,3.76-.09.45-.19.9-.26,1.36-.1.69-.21,1.38-.31,2.07-.08.52-.12,1.05-.18,1.58s-.12,1.05-.16,1.58c-.09,1.08-.2,2.16-.27,3.24s-.14,2.22-.2,3.34-.15,2.14-.19,3.22c-.1,2.18-.19,4.36-.23,6.54,0,1.18,0,2.35,0,3.52,0,.48,0,.95,0,1.43.05.7.09,1.4.14,2.11,0,.43.08.87.12,1.31s.1,1,.16,1.53c.15,1.22.3,2.43.47,3.64.31,2.24.64,4.49,1,6.73,0-.07,0-.14,0-.21.27,2,.56,4,.9,6a.78.78,0,0,0,.95.54.77.77,0,0,0,.46-.35.89.89,0,0,0,.08-.6c-.25-1.66-.49-3.31-.72-5-.11-.87-.22-1.74-.34-2.61l0,.21c-.28-2.1-.59-4.21-.87-6.31-.12-1-.24-2-.34-3-.06-.53-.13-1.06-.16-1.59,0-.68-.09-1.36-.13-2-.07-1.06,0-2.13-.05-3.19,0-.53,0-1.06,0-1.59s0-.88,0-1.32c.07-2.21.14-4.41.27-6.61s.24-4.38.42-6.56c.07-.84.12-1.68.21-2.52s.19-1.78.28-2.67l.27-1.75c.07-.48.16-.94.26-1.42s.2-1.05.32-1.57c.19-.79.37-1.59.56-2.38a.84.84,0,0,0-.59-1l-.21,0a.83.83,0,0,0-.82.62Zm.85,47.42s0,0,0,.07v-.07Z" style="fill:#2c2c2c"/><path d="M412.4,512.47c-.43,0-.86.09-1.28.15l-.46.08a1.25,1.25,0,0,0-1,1.15,1.09,1.09,0,0,0,.15.66,1.93,1.93,0,0,0,.48.51,2.73,2.73,0,0,0,.53.29l.88.41c1.29.58,2.58,1.16,3.88,1.72s2.43,1,3.66,1.41,2.46.87,3.7,1.23l4,1.15c1.13.32,2.25.69,3.37,1s2.25.76,3.37,1.14c1.43.48,2.86,1,4.28,1.47a1.37,1.37,0,0,0,1.69-1,1.33,1.33,0,0,0-.14-1,1.42,1.42,0,0,0-.82-.64c-1.47-.51-2.95-1-4.42-1.49-1.14-.38-2.27-.78-3.42-1.12-1.37-.4-2.73-.82-4.12-1.18-1.23-.31-2.46-.61-3.69-1-.95-.28-1.9-.56-2.85-.87s-1.87-.62-2.8-1c-1.39-.49-2.75-1.06-4.11-1.63a1.06,1.06,0,0,0,.12-.5,1.07,1.07,0,0,0-1-1Z" style="fill:#2c2c2c"/><path d="M251.27,466.76a3.36,3.36,0,0,0-.75.27,5.11,5.11,0,0,0-1.44,1,3.85,3.85,0,0,0-.55.71,7.36,7.36,0,0,0-.46.88.82.82,0,0,0-.08.63.77.77,0,0,0,.37.49.82.82,0,0,0,.63.08.8.8,0,0,0,.49-.37,7.14,7.14,0,0,1,.66-1.18,5.77,5.77,0,0,1,.44-.42,4.37,4.37,0,0,1,.76-.43,3.48,3.48,0,0,1,.63-.18h.34a1.61,1.61,0,0,1,.36.1,4.15,4.15,0,0,1,.57.35,3.07,3.07,0,0,1,.26.25l.11.18a.31.31,0,0,0,0,.08,5.08,5.08,0,0,1,0,.78,10.19,10.19,0,0,1-.63,2.17,4.42,4.42,0,0,1-.44.76,4,4,0,0,1-.63.61l-.3.19-.2.05h0l0,0a1.6,1.6,0,0,1,0-.21,8.34,8.34,0,0,1,.11-1.58.28.28,0,0,0,0-.09v0a.68.68,0,0,0-.07-.48A.58.58,0,0,0,251,471a.58.58,0,0,0-.48.06.6.6,0,0,0-.29.37c-.07.53-.14,1.05-.18,1.58a2.37,2.37,0,0,0,.27,1.39,1.75,1.75,0,0,0,.45.45l.26.1a1.21,1.21,0,0,0,.42,0,1.86,1.86,0,0,0,.73-.17,2.68,2.68,0,0,0,.58-.36,5.27,5.27,0,0,0,.57-.49,5.2,5.2,0,0,0,.51-.63,5.29,5.29,0,0,0,.59-1.22c.07-.21.16-.43.23-.65a9.51,9.51,0,0,0,.38-1.68,2.61,2.61,0,0,0-.18-1.49,3.33,3.33,0,0,0-1.18-1.18,3,3,0,0,0-1.61-.49H252a3.47,3.47,0,0,0-.72.1Zm.84,1.42h0Zm1.52,1.61s0,.09,0,.14a.68.68,0,0,1,0-.14Zm-2.35,3.58v0Zm0,.22,0,.05s0,0,0-.05Zm0,.11.05,0-.05,0Zm.12,0h0Zm0-1.94h0v0Z" style="fill:#2c2c2c"/><path d="M294.4,477.27l-.52.09c-1.41.28-2.79.63-4.2.87-1.14.14-2.29.24-3.43.33-.56,0-1.12.08-1.68.14s-1.31.16-2,.26c-.3.05-.6.12-.9.19a10.29,10.29,0,0,0-1.91.58,21.48,21.48,0,0,0-2,1l-1.47.75a9.54,9.54,0,0,0-1.49,1.05A24.33,24.33,0,0,0,272.4,485a.81.81,0,0,0,0,1.13.79.79,0,0,0,1.13,0,24.27,24.27,0,0,1,2.56-2.61,6.45,6.45,0,0,1,.82-.54c.35-.2.72-.37,1.08-.54.75-.35,1.47-.73,2.23-1.07a16.06,16.06,0,0,1,3.69-.84c1.84-.17,3.71-.23,5.55-.45a27.1,27.1,0,0,0,3-.51c.88-.19,1.75-.38,2.64-.51a4.19,4.19,0,0,1,.79,0l.31.08.06,0a2.29,2.29,0,0,1,.27.27,3.91,3.91,0,0,1,.26.44c0,.16.08.31.11.48a8.77,8.77,0,0,1-.1,2v0c-.36,2.3-.88,4.58-1.35,6.86-.24,1.23-.49,2.45-.7,3.69s-.43,2.3-.52,3.46a9.1,9.1,0,0,0,0,1.38l0,.35c-.46-.08-.93-.15-1.39-.21-.74-.09-1.49-.17-2.23-.22-1.5-.12-3-.25-4.5-.43h0a30.4,30.4,0,0,0-6.93-.47,1.5,1.5,0,0,0-1,.41,1.43,1.43,0,0,0-.41,1,1.41,1.41,0,0,0,.41,1,1.44,1.44,0,0,0,1.36.36l.5-.08a20.19,20.19,0,0,1,3.3-.06c1.14.07,2.28.19,3.43.25s2.4.13,3.6.17,2.2.12,3.3.25a5.24,5.24,0,0,0,1.58.09,1.12,1.12,0,0,0,1-.85.85.85,0,0,0,0-.5,2.25,2.25,0,0,1-.05-.22c0-.08,0-.16-.05-.23a11.61,11.61,0,0,1,.09-2.5c.32-2.24.75-4.46,1.19-6.68.49-2.4,1-4.79,1.33-7.23a9.24,9.24,0,0,0,.06-1,4,4,0,0,0-.89-2.67,3,3,0,0,0-.86-.73,3.13,3.13,0,0,0-1.45-.31h-.06a7.24,7.24,0,0,0-1.14.13Zm.64,1.81-.13,0,.13,0Zm-10.91,1.44h0Zm2.11,16.71.15,0-.15,0Zm-5.93,2.13-.11,0,.11,0Z" style="fill:#2c2c2c"/><path d="M115.62,196.38a1.28,1.28,0,1,0,0,2.56c5.62,0,11.25,0,16.88,0,6.17,0,12.35-.07,18.53-.11q19.54-.1,39.09-.08,38.87,0,77.74-.06,38.16,0,76.33-.06,39.07,0,78.14,0,34.65-.06,69.29-.16,14.88-.06,29.75-.08h17.41a10.93,10.93,0,0,0,1.62,0,.67.67,0,0,0,0-1.29,12.48,12.48,0,0,0-1.62,0h-4.4q-7.3,0-14.6,0-16.42,0-32.86-.1-18.35-.08-36.67-.09-19.62,0-39.24-.06-77.14,0-154.3-.09l-36.26,0-35.58,0q-18,0-36.06-.1l-17-.09H115.62Z" style="opacity:0.419999986886978"/><path d="M511.86,217.31l-3,0H508c-.13,0-.27,0-.41,0a11.63,11.63,0,0,1-1.18,0l-2.26,0q-7.12.08-14.26.08c-1.12,0-2.25,0-3.37,0-2.1,0-4.2,0-6.3,0h-17.8l-36.63,0H388q-74.53,0-149.07.06-34.93,0-69.87.12-16.17,0-32.35,0-15.56,0-31.11,0a.69.69,0,1,0,0,1.37q16.31,0,32.62,0l34.43.06q37.14.09,74.27.12,74.67.06,149.34,0,34.89,0,69.77,0h15.7c1.79,0,3.58,0,5.38,0,1.21,0,2.42,0,3.63,0q6.94,0,13.88.08c1,0,2,0,3,.07l.41,0a3.46,3.46,0,0,0,.56,0h.26c1,0,2,0,3,0a14,14,0,0,0,1.45,0,1.17,1.17,0,0,0,.8-.33,1.14,1.14,0,0,0,.33-.8,1.18,1.18,0,0,0-.33-.81,1.22,1.22,0,0,0-.8-.33c-.22,0-.43,0-.64,0Z" style="opacity:0.419999986886978"/><path d="M307.21,233.53l-9.77,0-18.95,0-39.93.05q-20,0-40,.07c-13.45,0-26.9.09-40.35.1-9,0-17.93,0-26.89,0-4.38,0-8.76,0-13.13,0l-13.33,0a.36.36,0,1,0,0,.71c6.31,0,12.61,0,18.93,0s12.67,0,19,0h19.71q9.94,0,19.89.06,40.31.1,80.61.14l27,0H315.6a.76.76,0,0,0,.26,0l.33,0a.52.52,0,0,0,.3-.2.51.51,0,0,0,.12-.23.41.41,0,0,0,0-.16h0a.54.54,0,0,0-.07-.29.58.58,0,0,0-.37-.3H316l-.23,0,.12,0h0l-.18,0-.14,0h-8.39Zm8.75,1.26h0Z" style="opacity:0.419999986886978"/><path d="M408.46,251.21q-75.54,0-151.1,0-17.38,0-34.77,0c-11.6,0-23.21.05-34.81.05H171l-17.08,0q-7.71,0-15.43,0l-7.64.05c-1.17,0-2.34,0-3.5.06l-.5,0-.37,0-.15.06-.07,0h-.64a.25.25,0,0,0-.25.25.26.26,0,0,0,.25.25h.64l.07,0,.15.07h.1c.25,0,.51,0,.77,0,1.16.05,2.34,0,3.5.05,2.75,0,5.5,0,8.24.05,5.62,0,11.24,0,16.86,0q18.15,0,36.32,0l36.65.06,37.92,0,76.71,0h73.9q34.56,0,69.11,0l31.31,0,13.08,0c1.58,0,3.17,0,4.75-.07.46,0,.92,0,1.37-.07l1.18-.06a.41.41,0,0,0,0-.82l-1.18-.07c-.45,0-.91,0-1.37-.06-1.73-.06-3.46-.08-5.2-.08l-14.5,0-33.8,0H445.39l-36.93,0Zm-282.13.36h0Zm0,0,0,0,0,0Zm0,.53,0,0,0,0Zm0,0,0,0,0,0Z" style="opacity:0.419999986886978"/><path d="M102.32,270.58a.89.89,0,0,0,.88.88c12,0,24,0,35.94-.06s23.8,0,35.7,0h38.31q19.14,0,38.29-.06l39.2-.06,38.36-.08q39.78,0,79.55,0h36.89l36.8,0h15.7c5.5,0,11,0,16.52,0q7.93,0,15.86,0h9.34c.73,0,1.46,0,2.19-.08a.51.51,0,0,0,.5-.5.5.5,0,0,0-.5-.5c-.66,0-1.32-.06-2-.08s-1.43,0-2.15,0c-2.46,0-4.93,0-7.4,0l-16.42,0c-5.55,0-11.09-.05-16.63-.05H480.76L443,270H404.26q-39.66,0-79.32,0c-12.67,0-25.35-.06-38-.08-13.06,0-26.12,0-39.18-.07q-37.12-.1-74.24,0c-11.7,0-23.4,0-35.09,0s-23.47-.05-35.21-.05a.89.89,0,0,0-.88.88Z" style="opacity:0.419999986886978"/><path d="M326.36,289.49q-40.11,0-80.22.07h-34q-17.53,0-35.07,0-16.34,0-32.67.07h-31.8a.7.7,0,0,0,0,1.4q18.23,0,36.45,0,18.94,0,37.89.06h28q25.68,0,51.38,0,39.92,0,79.85.06l78.78-.06,66.51,0,15.9,0,13.29-.07h21.34c.9,0,1.8,0,2.69,0a.67.67,0,0,0,.66-.66.67.67,0,0,0-.66-.66c-.89-.05-1.79,0-2.69,0H530.91q-6.92,0-13.84,0c-5.25,0-10.51-.05-15.77-.06q-9.32,0-18.62,0-38.52,0-77,0-35.31,0-70.63-.05Z" style="opacity:0.419999986886978"/><path d="M236.55,304.84q-31.87,0-63.74,0l-32.1,0q-8.22,0-16.43,0l-6.48,0-3.65,0-1.79,0a.73.73,0,0,0-.25.08l-.1.05a.33.33,0,0,0-.14.17s0,0,0,0,0,.07,0,.1,0,.07,0,.1,0,0,0,0a.38.38,0,0,0,.15.18l.09,0a.73.73,0,0,0,.25.08l1.79,0c1.49,0,3,0,4.47,0l9,0q9.61,0,19.22,0,19.55,0,39.08,0,39.53,0,79.07,0,80.67,0,161.34,0l64.53,0c4.85,0,9.71,0,14.56,0l12.22,0h14.25c2.37,0,4.73,0,7.1,0a.5.5,0,0,0,.49-.49.5.5,0,0,0-.49-.49c-2.58-.05-5.15,0-7.72,0l-4.75,0H513q-17.42,0-34.84-.06l-40.16,0q-20,0-40,0H367.15l-130.6,0Z" style="opacity:0.419999986886978"/><path d="M218.38,323.76c-9,0-18.06.06-27.1.07l-28.86.06-13.74,0c-4.47,0-8.94,0-13.41,0l-27.73,0a.76.76,0,0,0,0,1.52q17.58,0,35.16,0c5.89,0,11.77,0,17.66,0s12.06,0,18.09,0c24.48,0,49,.14,73.43.12l150.94-.14q14.48,0,28.93,0c9.18,0,18.37,0,27.55-.06,8.21-.07,16.41-.05,24.62-.05l11.67,0c3.19,0,6.38,0,9.57,0a.64.64,0,0,0,.64-.64.64.64,0,0,0-.64-.63l-6,0c-2.24,0-4.47,0-6.7,0-5.25,0-10.5,0-15.75,0h-4.65c-3.69,0-7.37,0-11.05,0-5.58-.05-11.15-.05-16.73-.05q-37.41-.06-74.82-.07l-76.41-.07q-25.92,0-51.83,0-11.43,0-22.85,0Z" style="opacity:0.419999986886978"/><path d="M162.31,643.24q-16.71.06-33.41.13c-5.5,0-11,0-16.51.06l-7.46.07-2.65,0-1.63,0a.45.45,0,0,0-.23.07.39.39,0,0,0-.18.22.31.31,0,0,0,0,.1.28.28,0,0,0,0,.09.36.36,0,0,0,.16.21h0a.38.38,0,0,0,.24.08l1.63,0,3.3.05,9.13.08c6.23,0,12.47,0,18.7.06q19.36.06,38.72.15,40,.1,80,0,20,0,40.06,0,20.4,0,40.78-.06l40.53,0,40.25,0q35.16,0,70.34,0c4.62,0,9.23,0,13.85,0h15.18l15.2,0h7.14c2.09,0,4.17,0,6.26,0a.61.61,0,0,0,0-1.21c-2.31,0-4.63,0-7,0l-8.34,0q-8.89,0-17.78,0c-5.38,0-10.75,0-16.13,0q-9,0-18.06,0-41,0-81.92-.06-40.35,0-80.71-.07t-80.45-.05H219q-28.35,0-56.7.08Z" style="opacity:0.419999986886978"/><path d="M167,660.73q-17.25,0-34.52.08l-17.29.07-8.55,0-3.16,0h-.69a3.58,3.58,0,0,0-.73,0,.72.72,0,0,0-.33.21h0l-.08.11a.52.52,0,0,0-.08.26.55.55,0,0,0,0,.22.76.76,0,0,0,.15.26h0a.59.59,0,0,0,.33.21l.18,0,1.24,0,3.16,0,9.37,0,18.65.07q19.07.07,38.11.08h79.15q80.78,0,161.53-.09l72.43,0h15.57c4.44,0,8.9,0,13.35,0l11.16,0h4.81c1.54,0,3.07,0,4.61,0a.74.74,0,0,0,0-1.47c-1.54,0-3.07,0-4.61,0h-5l-13.08,0-6.75,0c-2.57,0-5.13,0-7.7,0l-17.57,0q-39.16,0-78.35,0-40.47,0-80.93-.05t-80.9,0H167Z" style="opacity:0.419999986886978"/><path d="M243.52,677.55h-69.6q-16.8,0-33.61.05l-16.25,0-8.32,0c-1.18,0-2.35,0-3.52,0l-1.92,0-1,0a.54.54,0,0,0-.47.3h0a.56.56,0,0,0,0,.23.52.52,0,0,0,.11.32.53.53,0,0,0,.42.21c.35,0,.7,0,1,0l1.92,0,3.52,0c3.21,0,6.42,0,9.63,0l18.43,0,37.36,0h78.47q79,0,158.06,0l69.94,0h27.92c1.1,0,2.21,0,3.31,0l6.95.05,6.1,0c.6,0,1.2,0,1.8,0h.16a1.53,1.53,0,0,0,.64,0,.72.72,0,0,0,.5-.49.5.5,0,0,0,0-.12h0v0h0v0h0v-.06h0a.72.72,0,0,0-.09-.27,1,1,0,0,0-.19-.21,1,1,0,0,0-.21-.1h0a1.38,1.38,0,0,0-.45-.08l-.43,0c-.58,0-1.16,0-1.74,0l-7.54,0c-2.16,0-4.32,0-6.47,0-.53,0-1.06,0-1.59,0h-3.1q-16.32,0-32.63,0-39.61,0-79.25,0-65.74,0-131.51,0Z" style="opacity:0.419999986886978"/><path d="M139.56,697.28l-17.43,0-8.36,0h-3.41c-1.47,0-2.94,0-4.4,0a.67.67,0,0,0-.56.27h0a.76.76,0,0,0-.15.45.7.7,0,0,0,.12.4h0a.68.68,0,0,0,.6.32c1.46,0,2.93,0,4.4,0h6.06l12,0,24.32,0q24.36,0,48.73,0,49.28-.06,98.56,0l17.51,0c5.58,0,11.16,0,16.75,0l16.62,0h8c2.23,0,4.46,0,6.69,0a.67.67,0,1,0,0-1.34c-3.09,0-6.17,0-9.26,0l-11.46,0H333.35l-11.45,0q-24.51,0-49,0H223.18q-24.33,0-48.65,0h-35Z" style="opacity:0.419999986886978"/><path d="M218.36,711.89q-53.73,0-107.44,0a.75.75,0,1,0,0,1.5l39.22,0h39.37q40.62,0,81.23,0,81.87,0,163.73,0,27.86,0,55.71,0c4.12,0,8.24,0,12.36,0,3.31,0,6.61-.07,9.91-.08q6,0,11.92,0h2.34c.3,0,.6,0,.9,0h.82c.56,0,1.13,0,1.69,0h2l4.34,0,8.8-.1a.52.52,0,1,0,0-1c-2.93,0-5.87-.07-8.8-.09-1.45,0-2.89,0-4.34,0h-2c-.56,0-1.13,0-1.69,0h-.13l-1.24,0h-8.54q-7.75,0-15.5-.09c-2.69,0-5.37,0-8.07,0l-10,0h-21l-82.93,0H299.66l-81.3,0Z" style="opacity:0.419999986886978"/><path d="M112.51,729.25a.75.75,0,0,0,.74.74c6.38,0,12.77,0,19.16,0H272.6l165.67,0h61c9,0,17.92,0,26.88,0q10.8,0,21.59,0a.67.67,0,0,0,0-1.34c-9.38,0-18.77,0-28.14,0q-19.8,0-39.58,0H399l-164.58,0H142.72c-9.82,0-19.64,0-29.47,0a.75.75,0,0,0-.74.74Z" style="opacity:0.419999986886978"/><path d="M115,748.49a.83.83,0,0,0,.81.82l37.65,0H273.56l163.67,0,63.59,0h6.31c2.26,0,4.51,0,6.77,0,3.82-.08,7.65-.06,11.47-.07l11.83,0c1.12,0,2.24,0,3.36,0,1.46,0,2.93,0,4.39-.07a.51.51,0,0,0,.5-.5.51.51,0,0,0-.5-.5c-1.49-.06-3,0-4.48-.06-1.84,0-3.69,0-5.53,0l-14.57,0c-2.16,0-4.31,0-6.47-.05-2.91-.06-5.81,0-8.71,0H487.61l-79.32,0-163.81,0H179.53c-10.87,0-21.75,0-32.62,0l-31.11,0a.82.82,0,0,0-.81.81Z" style="opacity:0.419999986886978"/><path d="M356,765.13l-5,0c-3.38,0-6.75,0-10.13,0H318.21l-46.25,0-46.55,0q-23.57,0-47.13.06-15.76,0-31.53,0-15,0-30,0a.77.77,0,1,0,0,1.53c14.94,0,29.88,0,44.82.07,15.69,0,31.37,0,47.06,0q46.86.11,93.74.09l30.57,0h3.87c3.55,0,7.1,0,10.65,0l6.79,0,2.78,0c1.17,0,2.34,0,3.52-.06a1,1,0,0,0,0-2c-1.16,0-2.31,0-3.46,0Z" style="opacity:0.419999986886978"/><path d="M1263.69,320.65a.25.25,0,0,0,.25.25.26.26,0,0,0,.25-.25.25.25,0,0,0-.25-.25.25.25,0,0,0-.25.25Z" style="fill:#2c2c2c"/><path d="M1263.69,186.15a.25.25,0,0,0,.25.25.26.26,0,0,0,.25-.25.25.25,0,0,0-.25-.25.25.25,0,0,0-.25.25Z" style="fill:#2c2c2c"/><path d="M1186.17,156.67a31.63,31.63,0,0,0-3.32.84,11.17,11.17,0,0,0-1.67.62c-.55.27-1.09.54-1.63.83a1,1,0,0,0,1,1.7c.54-.28,1.07-.56,1.62-.83.26-.1.52-.21.78-.29l1.2-.38c.83-.26,1.68-.48,2.53-.68a1,1,0,0,0,.66-1.16.93.93,0,0,0-.93-.68.85.85,0,0,0-.23,0Z" style="fill:#2c2c2c"/><rect x="953.8" y="21" width="595.28" height="841.89" style="fill:#fff;stroke:#000;stroke-miterlimit:10;stroke-width:2px"/><path d="M1133.89,83.61H1028.35a.25.25,0,0,0-.25.25V788a.25.25,0,0,0,.25.25h340.07a.25.25,0,0,0,.25-.25V83.86a.25.25,0,0,0-.25-.25ZM1028.57,787.75V88.57l0-4.49h339.57l0,0V556.82l0,231H1129.74l-101.17,0Z"/><polygon points="1368.17 84.08 1256.77 84.08 1032.01 84.08 1031.81 84.08 1028.6 84.08 1028.57 88.57 1028.57 296.84 1028.57 550.25 1028.57 787.75 1129.74 787.78 1368.17 787.78 1368.19 556.83 1368.19 308.96 1368.19 84.11 1368.17 84.08 1368.17 84.08 1368.17 84.08" style="fill:#f8e2bf;opacity:0.379999995231628"/><path d="M1037.88,190.43a3.17,3.17,0,0,0-1.36.79l-.27.31h-7.07a1.88,1.88,0,0,0-1.86,1.86c0,13.17,0,26.34-.06,39.5q-.12,20.24-.31,40.47t-.23,40.78c0,13.55,0,27.1,0,40.65q0,30.66-.06,61.32a2.57,2.57,0,0,0,2.54,2.54c9.86,0,19.72,0,29.58,0,12.7.06,25.4.17,38.11.21q41.22.17,82.45.09,83.42-.15,166.84-.23h66.59c9.77,0,19.53-.05,29.29-.08,10.92,0,21.82-.13,32.73-.14a2.42,2.42,0,0,0,2.4-2.4v-5.56a19.26,19.26,0,0,0,0-2,2.36,2.36,0,0,0-.14-.8c0-.42,0-.83,0-1.24,0-1.34,0-2.68,0-4,0-3.33,0-6.66,0-10,0-6.67.09-13.33.1-20q0-19.93,0-39.86c0-13.32.06-26.64.07-39.95,0-13.95.2-27.9.3-41.85q.08-10.82.06-21.64c0-3.58,0-7.17,0-10.75,0-1.83,0-3.66,0-5.49,0-1.09.07-2.2,0-3.28,0,.18,0,.36-.07.55a29.47,29.47,0,0,0,.12-3.39c0-1.24,0-2.48,0-3.72,0-3.25,0-6.49,0-9.74a2.8,2.8,0,0,0-2.78-2.78l-72.64,0q-40,0-79.93-.09-39.21,0-78.43.09t-78.52.36q-16.83.08-33.65.12c-6,0-12,0-18,0-5.14,0-10.27,0-15.4,0l-30.89.05c-4.8,0-9.6.08-14.39-.05-2.66-.08-5.32-.28-8-.5-1.49-.12-3-.25-4.46-.25a19.25,19.25,0,0,0-2.63.17Zm-1.63,4.82a2.78,2.78,0,0,0,1.63,1.1,33,33,0,0,0,7.09-.08c2.92-.22,5.82-.44,8.74-.52,4.91-.13,9.83,0,14.74,0,11.12,0,22.24.05,33.37.06l15.92,0q9.36,0,18.73,0c12.45,0,24.9.1,37.35.13,26,.08,52.09.29,78.14.34q39.4.1,78.79.08,37.7,0,75.37-.09,32.94,0,65.87,0,0,3.32,0,6.61v3.3a31.28,31.28,0,0,0,.14,4.33l-.09-.72c-.07.84,0,1.7,0,2.54,0,1.55,0,3.1,0,4.65q0,5.37,0,10.74,0,10.29,0,20.58c.08,14,.31,28,.32,42q0,20,.07,39.92c0,13.36,0,26.72,0,40.08q0,10.41.09,20.83c0,3.22,0,6.44,0,9.67,0,1.75,0,3.5-.07,5.26,0,.57,0,1.15,0,1.74a2.25,2.25,0,0,0-.15.82,19.26,19.26,0,0,0,0,2v3.15q-8.46,0-16.91-.1c-5.9,0-11.8,0-17.69-.05q-18.26,0-36.51-.07-40.52,0-81,0-41.91,0-83.8-.1c-27.68-.05-55.35-.14-83-.12q-34.44,0-68.86.16-14.9.08-29.78.19c-2.22,0-4.45,0-6.67,0h-16.38c0-26.25-.07-52.5,0-78.75,0-13.23,0-26.47-.11-39.71-.07-13.89-.25-27.77-.34-41.66q-.21-29.1-.19-58.2Z" style="fill:#2c2c2c"/><path d="M1435.76,586.64h.32l.63-1.87c-.33.62-.64,1.24-1,1.87Z" style="fill:#2c2c2c"/><path d="M1157.28,269.24a9.77,9.77,0,0,0-.91,1.39c-.22.42-.44.84-.65,1.27-.38.77-.73,1.56-1.1,2.33-.78,1.62-1.57,3.21-2.37,4.82-1.66,3.35-3.46,6.64-5.21,9.94-1.63,3.06-3.33,6.08-5,9.12-1.77,3.26-3.59,6.51-5.28,9.82-3.53,6.9-7.1,13.78-10.58,20.71-1.48,2.93-3,5.84-4.45,8.8-.82,1.69-1.67,3.37-2.47,5.08l-2.8,6q-4.47,9.54-8.72,19.16l-1.5,3.42c-.28.64-.55,1.3-.85,1.93l-2.67,5.53c-.34.7-.72,1.39-1.08,2.08-.49.95-1,1.9-1.48,2.86-.38.72-.81,1.41-1.22,2.11l-.93,1.61c-.14.25-.27.52-.43.75l-2.57,3.83c-.34.51-.75,1-1.12,1.46l-1.18,1.54-2,2.31c-.54.62-1.12,1.21-1.69,1.81-1.2,1.27-2.45,2.5-3.69,3.73s-2.67,2.61-3.91,4a38.09,38.09,0,0,0-3.24,4,26.08,26.08,0,0,0-1.49,2.55c-.69,1.37-1.39,2.73-2.07,4.1a1.47,1.47,0,0,0,2.54,1.48,48.65,48.65,0,0,1,4.24-7.55,104.32,104.32,0,0,1,8.47-8.87c1.2-1.18,2.36-2.42,3.47-3.69.63-.72,1.29-1.43,1.87-2.19l2.14-2.77c.44-.57.83-1.18,1.22-1.78.56-.82,1.11-1.65,1.66-2.47.16-.24.29-.5.43-.75.34-.58.68-1.16,1-1.75s.8-1.32,1.16-2l1.54-3c.34-.66.7-1.31,1-2,.89-1.84,1.77-3.68,2.67-5.52.32-.67.6-1.37.9-2,.49-1.12,1-2.24,1.48-3.36q1.1-2.49,2.21-5,2-4.59,4.18-9.12c3.21-6.82,6.42-13.65,9.9-20.35,1.7-3.28,3.37-6.58,5.09-9.85q2.76-5.26,5.53-10.5,1.25-2.38,2.5-4.76c.86-1.65,1.77-3.26,2.66-4.88,1.69-3,3.4-6.06,5.09-9.09,3.59-6.46,7.18-12.91,10.35-19.58.35-.74.68-1.48,1-2.22.42-1,.83-1.91,1.15-2.9a1.69,1.69,0,0,0-.78-1.9,1.67,1.67,0,0,0-2,.26Zm-76,142.1a1,1,0,0,1-.08.11,1,1,0,0,0,.08-.11Z" style="fill:#2c2c2c"/><path d="M1160.26,272a1.34,1.34,0,0,0-.93,1.64c.39.94.78,1.89,1.2,2.82s.81,1.66,1.24,2.48c.23.43.52.83.77,1.24s.48.73.73,1.1c.52.75,1,1.51,1.64,2.22,1.2,1.46,2.46,2.87,3.69,4.31s2.21,2.72,3.28,4.1c1.25,1.75,2.5,3.5,3.69,5.29l3.82,5.73c1.16,1.75,2.41,3.45,3.66,5.13s2.76,3.64,4.21,5.41c2.8,3.38,5.68,6.7,8.4,10.15s5.65,7.17,8.52,10.71c1.35,1.68,2.76,3.31,4.16,4.95.2.25.44.47.66.7l1.7,1.78c.63.65,1.26,1.28,1.92,1.91,1.72,1.65,3.47,3.25,5.23,4.85,1.47,1.33,3,2.61,4.46,3.91,3.26,2.85,6.45,5.77,9.69,8.64s6.63,5.91,10.13,8.64,7.1,5.6,10.88,8.06l3.14,2c1,.63,2,1.2,2.94,1.8s2,1.1,3,1.64,1.91,1,2.86,1.5c1.79.92,3.56,1.88,5.38,2.75,2.08,1,4.19,1.91,6.33,2.76,4.24,1.7,8.51,3.3,12.76,5q2.3.92,4.56,1.86c1.85.83,3.68,1.67,5.44,2.68q3.07,1.74,6.1,3.59c1.75,1.07,3.47,2.21,5.22,3.29,1,.6,2,1.19,3,1.74a28.4,28.4,0,0,0,3.39,1.5,33.64,33.64,0,0,0,5.77,1.46l6.37,1.22a2.51,2.51,0,0,0,1.84-.24,2.39,2.39,0,0,0-.57-4.36c-2.21-.54-4.42-1-6.64-1.51-1.09-.24-2.19-.48-3.27-.76a26.43,26.43,0,0,1-2.77-.92,47,47,0,0,1-5.38-3.08q-2.78-1.81-5.58-3.59c-.91-.57-1.84-1.13-2.76-1.68s-1.66-1-2.51-1.46-1.86-1-2.83-1.49-2-.95-3.07-1.39c-3.33-1.41-6.68-2.78-10-4.06s-6.51-2.48-9.74-3.8c-1.92-.84-3.81-1.73-5.7-2.66-.82-.4-1.63-.83-2.45-1.25s-1.93-.95-2.89-1.46-2.08-1.06-3.08-1.65l-3-1.81c-1.89-1.12-3.71-2.37-5.54-3.59-2.7-1.81-5.27-3.82-7.85-5.8-1.71-1.34-3.41-2.69-5.07-4.09s-3.45-2.94-5.17-4.42c-3.37-2.91-6.71-5.86-10.11-8.74-1.46-1.23-2.93-2.45-4.37-3.7l-2.79-2.42c-.92-.8-1.8-1.65-2.7-2.47-.69-.63-1.34-1.29-2-2s-1.42-1.36-2.07-2.1c-1.54-1.73-3.08-3.46-4.58-5.23s-3.09-3.68-4.64-5.53c-1.22-1.47-2.41-3-3.65-4.43-1.49-1.74-3-3.48-4.49-5.18s-2.81-3.14-4.17-4.75c-.88-1-1.79-2.05-2.63-3.12l-2.32-3c-1.3-1.76-2.59-3.53-3.84-5.34s-2.56-3.7-3.83-5.55c-.66-1-1.38-1.89-2.07-2.84s-1.25-1.63-1.89-2.44-1.33-1.67-2-2.47-1.54-1.77-2.32-2.65c-.64-.71-1.25-1.43-1.87-2.17s-.92-1.24-1.37-1.87-.87-1.34-1.29-2a18.7,18.7,0,0,1-1.09-2.14c-.34-.73-.65-1.47-1-2.21,0,.11.09.22.14.32-.09-.21-.18-.42-.26-.63a1.5,1.5,0,0,0-.62-.8,1.32,1.32,0,0,0-.67-.18,1.49,1.49,0,0,0-.36.05Zm24.12,32.65.16.21-.16-.21Z" style="fill:#2c2c2c"/><path d="M1326.83,275.28q-1.18,1.74-2.46,3.42c-1.35,1.72-2.68,3.44-4,5.17s-2.43,3.27-3.68,4.88l.18-.24q-3.15,4.1-6.32,8.15c-1.08,1.39-2.18,2.75-3.29,4.11l-3.3,4c-2.1,2.54-4.19,5.09-6.22,7.7-2.39,3.07-4.75,6.15-7.11,9.24-3,4-6,8-9,11.93-1.13,1.43-2.27,2.86-3.4,4.3-.93,1.16-1.9,2.3-2.86,3.44s-2,2.36-3,3.53c-.81.92-1.61,1.85-2.41,2.77-.42.47-.81,1-1.25,1.43l-3.91,4c-.55.57-1.19,1.09-1.77,1.63s-1.17,1.12-1.79,1.64c-1.4,1.19-2.81,2.38-4.25,3.53s-2.53,2.25-3.75,3.41l-1,1a1.76,1.76,0,1,0,2.49,2.49q2.07-2,4.21-3.93c.62-.55,1.29-1.05,1.94-1.57s1.41-1.2,2.12-1.8c1.36-1.16,2.65-2.4,4-3.62.41-.37.79-.78,1.18-1.19l2.49-2.59c1.14-1.19,2.18-2.46,3.26-3.71s2-2.27,2.91-3.42,2.2-2.55,3.23-3.87l3.94-5c1-1.32,2-2.68,3.06-4l2.65-3.51q3.52-4.69,7.07-9.37l.71-.94,3.27-4.23c1.07-1.38,2.18-2.73,3.27-4.09,2.15-2.67,4.36-5.3,6.53-7.95,1.27-1.55,2.5-3.14,3.72-4.74h0l0,0,.1-.12-.07.08.2-.25,2.39-3.09-.26.33q3.26-4.22,6.43-8.48c1-1.36,2.06-2.71,3.08-4.07a33.57,33.57,0,0,0,2.63-4c.17-.31.33-.62.49-.93a1.38,1.38,0,0,0-1.18-2.09,1.5,1.5,0,0,0-1.23.69Zm-2.32,3.23-.08.11a.76.76,0,0,0,.08-.11Zm-10.29,18.7v0s0,0,0,0Zm.13-.16.12-.15-.12.15Z" style="fill:#2c2c2c"/><path d="M1334.82,274.25a2,2,0,0,0-1.2.92,1.93,1.93,0,0,0-.2,1.54,35.55,35.55,0,0,0,2.75,5.61c.47.75.94,1.52,1.45,2.26,1.08,1.59,2.22,3.14,3.45,4.64,2.31,2.82,4.57,5.68,6.84,8.54,1.45,1.91,2.9,3.82,4.29,5.78.65.92,1.31,1.82,1.91,2.76l2.36,3.66c1.4,2.19,2.7,4.45,4,6.7,1.19,2.06,2.33,4.15,3.55,6.2.64,1.08,1.25,2.21,2,3.26l2.38,3.59c.24.36.52.69.78,1,.55.75,1.11,1.49,1.66,2.23.72,1,1.49,1.91,2.26,2.85,1.7,2.08,3.45,4.11,5.21,6.14.24.28.52.54.78.8l2,2,1,1c.38.39.83.73,1.24,1.09,1,.87,1.94,1.79,3,2.62l3.61,2.9c1,.79,2,1.52,3,2.27s1.82,1.36,2.76,2c4.18,2.93,8.35,5.9,12.72,8.56q3.59,2.19,7.22,4.3c1.11.64,2.26,1.22,3.4,1.83s2.06,1.08,3.1,1.61c2.13,1.1,4.29,2.17,6.47,3.17,2.47,1.12,5,2.19,7.46,3.23,4.3,1.78,8.65,3.46,13,5.21,1.73.75,3.46,1.52,5.21,2.21,1.93.76,3.87,1.47,5.84,2.1a34.64,34.64,0,0,0,5.29,1.31c2.29.34,4.59.48,6.89.74a2.32,2.32,0,0,0,1.18-.32,2.35,2.35,0,0,0,1.07-1.4,2.33,2.33,0,0,0-1.63-2.86c-3-.62-6-.88-9-1.73-2.76-.81-5.45-1.82-8.12-2.87-3.78-1.62-7.57-3.2-11.4-4.69-3.49-1.35-6.94-2.8-10.39-4.25-2.44-1.11-4.87-2.24-7.28-3.42-2.14-1-4.25-2.16-6.34-3.28-4.61-2.47-9.06-5.21-13.48-8-2.12-1.34-4.17-2.8-6.25-4.23-2.34-1.61-4.65-3.27-7-4.94-1.47-1.15-3-2.28-4.39-3.51l-3.25-2.81c-.67-.58-1.29-1.23-1.92-1.86l-1.55-1.55c-.25-.25-.53-.49-.76-.76l-2.63-2.95c-1.37-1.54-2.67-3.13-4-4.71-.75-1-1.51-2-2.26-2.95s-1.33-1.88-2-2.83c-1.33-1.95-2.57-4-3.76-6-1.38-2.35-2.77-4.71-4.16-7.05-1.28-2.16-2.66-4.25-4-6.33-.52-.8-1-1.62-1.59-2.39l-2.42-3.33c-1.27-1.75-2.63-3.43-4-5.13s-2.69-3.31-4-5-2.7-3.27-4.06-4.9c-.7-.93-1.42-1.86-2.05-2.84l-1.24-1.92a28.45,28.45,0,0,1-2.16-4.22l-.15-.36a2.21,2.21,0,0,0-.92-1.2,2,2,0,0,0-1-.27,1.86,1.86,0,0,0-.52.07Zm2.43,1.33c.06.14.12.28.17.42-.06-.14-.12-.28-.17-.42Zm10.4,21.84.22.29-.22-.29ZM1375.26,331c.07.09.14.17.2.26-.06-.09-.13-.17-.2-.26Zm58.12,41.63.34.14-.34-.14Z" style="fill:#2c2c2c"/><path d="M1082.9,229.66c-.82.2-1.65.43-2.46.7s-1.68.56-2.51.88a19.74,19.74,0,0,0-2.16,1,10.23,10.23,0,0,0-1.3.88c-.61.44-1.19.92-1.77,1.41a18,18,0,0,0-1.43,1.33,13.47,13.47,0,0,0-1.32,1.69,15.88,15.88,0,0,0-1.46,3c-.45,1.1-.88,2.21-1.27,3.32a2.05,2.05,0,0,0,.21,1.64,2.13,2.13,0,0,0,2.9.76,2.24,2.24,0,0,0,1-1.27c.23-.61.47-1.22.71-1.83a20.89,20.89,0,0,1,2-3.75,19.9,19.9,0,0,1,2.73-2.54c.34-.25.68-.5,1-.73a9.87,9.87,0,0,1,1.38-.69h0q.45-.19.9-.36l1.66-.56c.61-.21,1.24-.36,1.86-.55a25.15,25.15,0,0,1,3.34-.73,16.91,16.91,0,0,1,2.66-.1c.56,0,1.13.1,1.68.15l1.91.22c2.24.33,4.47.72,6.69,1.1,1.24.22,2.46.46,3.68.76a26,26,0,0,1,3.3,1.08,38.34,38.34,0,0,1,4.22,2.07c1.55.92,3,1.95,4.5,3a15.83,15.83,0,0,1,2.41,2.14c.57.76,1.07,1.56,1.58,2.36a27.39,27.39,0,0,1,1.69,3.16c.33.84.61,1.68.88,2.53.19.57.32,1.17.46,1.75a25.29,25.29,0,0,1,.52,3c.17,1.46.35,2.92.39,4.38s.09,3,0,4.51c0,1.67-.1,3.33-.18,5-.07,1.42-.23,2.83-.39,4.25-.13.83-.27,1.66-.46,2.49-.1.46-.22.9-.34,1.35-.25.9-.52,1.79-.86,2.67s-.75,1.47-1.15,2.19a20.74,20.74,0,0,1-1.24,1.95,11.12,11.12,0,0,1-1.48,1.51c-.73.54-1.49,1-2.24,1.55a25.62,25.62,0,0,1-4,2.21,56,56,0,0,1-9.7,2.6c-2.6.54-5.2,1.1-7.83,1.52a27.23,27.23,0,0,1-4.14.23c-1.87-.07-3.73-.16-5.58-.39a28.17,28.17,0,0,1-6.39-1.7,25,25,0,0,1-4.72-2.69l-2-1.46c-.69-.55-1.39-1.09-2-1.68l-1.39-1.27a24.58,24.58,0,0,1-2.61-2.88,23.24,23.24,0,0,1-1.64-2.45c-.29-.51-.53-1-.78-1.57s-.59-1.31-.87-2c-.44-1.11-.86-2.21-1.28-3.32s-.73-2.18-1.07-3.28a47.07,47.07,0,0,1-1.73-7.12,34.83,34.83,0,0,1-.11-4.57c0-1.05.06-2.1.1-3.15.06-1.25.13-2.5.22-3.76.07-1,.19-2.05.3-3.07l.33-2.28c.11-.72.28-1.45.42-2.17a34.69,34.69,0,0,1,1.68-5.83,11.77,11.77,0,0,1,1.32-2.28,13.87,13.87,0,0,1,2.16-2.24l-.13.09.16-.11,0,0,0,0a13.74,13.74,0,0,1,2.42-1.57,12.22,12.22,0,0,1,2.45-.69,18.67,18.67,0,0,1,4.09.19.89.89,0,0,0,.88-.88.9.9,0,0,0-.88-.87c-.86-.1-1.72-.2-2.59-.23a11.65,11.65,0,0,0-3.32.39,10.63,10.63,0,0,0-3.2,1.42,13.68,13.68,0,0,0-2.84,2.24,15.29,15.29,0,0,0-1.35,1.55,10,10,0,0,0-.83,1.31c-.29.55-.52,1.12-.76,1.69a30.26,30.26,0,0,0-1.22,3.93,48.78,48.78,0,0,0-1,4.81,97.31,97.31,0,0,0-1,10.09,37.46,37.46,0,0,0-.07,6.44c.11,1,.31,2.07.51,3.1.15.82.34,1.64.54,2.45a67.38,67.38,0,0,0,3,9.22c.39.94.78,1.87,1.19,2.81a22.67,22.67,0,0,0,3.54,5.31,36.71,36.71,0,0,0,2.88,3c.6.58,1.25,1.1,1.89,1.64s1.45,1.14,2.18,1.71a30.72,30.72,0,0,0,4.22,2.73,27.45,27.45,0,0,0,6.84,2.47,39.33,39.33,0,0,0,5,.71l2.59.21,1,.05c.45,0,.92.05,1.36,0,.91-.05,1.8-.11,2.71-.2s2-.26,2.92-.42c1.63-.28,3.25-.61,4.87-.92s3.31-.64,5-1a32.4,32.4,0,0,0,8.4-3,38.47,38.47,0,0,0,3.44-2.19c.66-.45,1.3-.92,1.92-1.42a12.35,12.35,0,0,0,2.41-2.79,26.27,26.27,0,0,0,1.57-2.72,19.9,19.9,0,0,0,1.43-3.48c.3-1,.56-2,.77-3,.17-.78.28-1.58.4-2.37s.24-1.85.31-2.78c.11-1.66.26-3.33.29-5,0-.93,0-1.85,0-2.77s0-1.75,0-2.62a55.73,55.73,0,0,0-1.19-10.19c-.1-.39-.17-.8-.3-1.18l-.48-1.5a24,24,0,0,0-2-4.51c-.42-.73-.82-1.46-1.3-2.16-.26-.38-.52-.77-.79-1.15a12.26,12.26,0,0,0-1.17-1.42,13.74,13.74,0,0,0-1.35-1.18,53.45,53.45,0,0,0-4.36-3.14,39.44,39.44,0,0,0-9.26-4.31c-.8-.22-1.61-.44-2.43-.6s-1.62-.3-2.43-.43l-5.14-.86c-1.82-.31-3.66-.49-5.5-.67q-.66-.06-1.32-.06a24,24,0,0,0-5.77.84Zm3.76,3.54-.16,0,.16,0Zm28.37,7.9.42.32-.42-.32Zm8,15.59,0,.16a1,1,0,0,0,0-.16Zm-65.7,6.09s0,.07,0,.1l0-.1Zm6.48-29.17,0,0,0,0Z" style="fill:#2c2c2c"/><path d="M1428.1,611a.69.69,0,0,1,0-.1,5.28,5.28,0,0,0,.23-.89l0-.17-.3,1.16Z" style="fill:#2c2c2c"/><path d="M1440,596.9c-8.65,0-17.29.17-25.94.32-3.62.07-7.25.14-10.87.12l-6.51,0a2.59,2.59,0,0,0-1.31-.37h-5.68a2.62,2.62,0,0,0-2.59,2.6c0,12.83-.14,25.65-.25,38.48q-.16,19.54.11,39.06c.18,13.08.3,26.15.45,39.22.13,12.68.22,25.36.53,38,.07,2.49.11,5,.15,7.45s.11,4.69.15,7c.1,5.86,0,11.73,0,17.59a1.42,1.42,0,0,0,1.4,1.4h10.41c2.93,0,5.87-.05,8.81-.06q9.33,0,18.66,0,19.28,0,38.56.1l26.31.08q6.38,0,12.74.07,3.15,0,6.3.06c.82,0,1.65,0,2.47.06l1.22.07a1.81,1.81,0,0,0,1.79-1.79c0-6.09.08-12.19.08-18.28q0-10.07,0-20.11c0-13.36,0-26.71,0-40.06,0-13.09.16-26.18.22-39.27q.08-19.1.13-38.21c0-4.93,0-9.86,0-14.79,0-2.2,0-4.39,0-6.58l0-3.58c0-.49,0-1,0-1.46a8.78,8.78,0,0,0,0-1c0-1.17,0-2.33,0-3.5a2.18,2.18,0,0,0-2.16-2.16c-6,0-12,0-18-.13-6.51-.11-13-.23-19.53-.28s-13.24-.1-19.85-.13h-3.27c-4.85,0-9.69,0-14.54.06Zm21.47,5.33c9.25-.05,18.5-.12,27.75-.26l13.36-.21c3.48,0,7,0,10.43,0V603c0,.35,0,.7,0,1.05,0,.61,0,1.22,0,1.84,0,1.47,0,3,0,4.43,0,2.61,0,5.22,0,7.83q0,9.09,0,18.18c0,12.83.07,25.65.15,38.47.08,13.14.19,26.28.2,39.41q0,20.16,0,40.33,0,8.38,0,16.76c0,4.46.06,8.93.07,13.39h-.25l-4.61.06c-3,0-6,.05-9.07.07-6.56,0-13.13,0-19.69.07q-19.38.06-38.77.11-12.63,0-25.24.05c-4,0-8,0-11.93-.06-2.35-.06-4.71,0-7.06,0h-5.67c0-6.2,0-12.41.09-18.61.13-5.84.27-11.67.38-17.51.22-12.9.35-25.8.48-38.7s.28-26,.45-39.06.09-25.81,0-38.72q-.13-15.13-.19-30.27h3.08a2.5,2.5,0,0,0,1.26-.34c1,0,2.09,0,3.14,0,2.63,0,5.26,0,7.89,0s5.15.09,7.73.13l9.27.14c6.17.11,12.35.14,18.53.18l11.08,0c2.4,0,4.8,0,7.2,0Z"/><path d="M1407.33,608.09a2.92,2.92,0,0,0-.3,1.13c0,.35-.09.69-.14,1l-.18,1.37c-.66,4.41-1.36,8.82-2.16,13.22-.21,1.16-.42,2.33-.59,3.51s-.29,2.39-.42,3.59a3.13,3.13,0,0,0-.14.95,1.41,1.41,0,0,0,1,1.36,1.44,1.44,0,0,0,1.74-1,5.28,5.28,0,0,0,.18-1.81c0-.49,0-1,.05-1.47,0-1,.17-2,.3-3,0,.11,0,.23,0,.33.32-2.28.66-4.57,1-6.85s.6-4.61.88-6.91c.08-.62.15-1.25.21-1.87a.62.62,0,0,0,.73.36.63.63,0,0,0,.44-.77c-.19-.51-.38-1-.56-1.54a9.58,9.58,0,0,1-.42-1.28.8.8,0,0,0-.26-.56.9.9,0,0,0-.59-.25.84.84,0,0,0-.73.42Z"/><path d="M1420.39,608.7a1.67,1.67,0,0,0-.6.61,1.57,1.57,0,0,0-.17,1.3l0,.12a4.07,4.07,0,0,1,0,.5c-.17,1.11-.38,2.21-.59,3.32s-.44,2.47-.66,3.7c-.43,2.41-.82,4.84-1.29,7.24-.07.37-.16.73-.25,1.09a12.67,12.67,0,0,1-.49,1.73h0a11.11,11.11,0,0,1-1.45-1.54,20.48,20.48,0,0,1-1.4-2.28c-.2-.4-.41-.79-.58-1.19s-.4-.91-.59-1.37c-.37-.94-.72-1.89-1-2.85-.15-.45-.31-.9-.44-1.36-.19-.66-.38-1.32-.56-2-.27-1-.49-1.92-.71-2.87l-.36-1.59-.18-.74c-.1-.43-.16-.95-.59-1.18a.7.7,0,0,0-.7,0,.67.67,0,0,0-.33.6h0l0,.28c0,.74.19,1.47.3,2.2.08.57.18,1.13.28,1.7.2,1.3.52,2.57.82,3.85.26,1.1.57,2.2.91,3.29.41,1.27.84,2.52,1.36,3.75.15.36.3.71.44,1.06s.27.54.4.81a17.94,17.94,0,0,0,.9,1.59,12.07,12.07,0,0,0,1.21,1.63,5.13,5.13,0,0,0,1.36,1.14,2.77,2.77,0,0,0,1.23.35h.13a1.4,1.4,0,0,0,.54-.1,2.54,2.54,0,0,0,.92-.55,5.42,5.42,0,0,0,1.27-2.22,15.23,15.23,0,0,0,.4-1.51q.24-1,.45-2c.26-1.22.46-2.46.7-3.69.36-1.87.73-3.73,1.09-5.6.18-.9.38-1.79.58-2.69.09-.41.17-.83.25-1.25s.11-.69.15-1a2.48,2.48,0,0,0-.67-2,1.77,1.77,0,0,0-1.22-.49,1.64,1.64,0,0,0-.84.23Zm-8.16,13,0,.08,0-.08Zm4,6.87Z"/><path d="M1430.86,618.57a17.2,17.2,0,0,0-1.74.21,3.22,3.22,0,0,0-2.28,1.64,4.61,4.61,0,0,0-.46,1.15,1.79,1.79,0,0,0,.35,1.62l-.32.4a11.86,11.86,0,0,0-.69,1,11.41,11.41,0,0,0-.89,2.1,10.32,10.32,0,0,0-.63,2.73,3.83,3.83,0,0,0,.08.68,4,4,0,0,0,.16.59,3.82,3.82,0,0,0,.6,1.08,4.62,4.62,0,0,0,1,1,6.27,6.27,0,0,0,1.32.66,5.78,5.78,0,0,0,2.54.3,8.82,8.82,0,0,0,2.94-.77,14.51,14.51,0,0,0,4.39-3.19,13.3,13.3,0,0,0,1.7-2.18c.21-.33.41-.67.59-1a6.14,6.14,0,0,0,.62-1.44,4,4,0,0,0,0-1.82,4.77,4.77,0,0,0-.32-.8,5.39,5.39,0,0,0-.3-.52,7.53,7.53,0,0,0-2.36-2.17,9.24,9.24,0,0,0-1.88-.82,9.77,9.77,0,0,0-1.62-.37,15,15,0,0,0-2-.18c-.27,0-.53,0-.79,0Zm1.86,3.9a10.35,10.35,0,0,1,2,.5,7.24,7.24,0,0,1,1.14.67,5.62,5.62,0,0,1,.55.54c.07.1.13.2.19.3l0,.12a1.58,1.58,0,0,1-.09.31c-.15.35-.31.7-.49,1a9.94,9.94,0,0,1-.78,1.24,15.22,15.22,0,0,1-2.26,2.28,10.36,10.36,0,0,1-1.84,1.09,7.43,7.43,0,0,1-1.53.44,6,6,0,0,1-1,0,5.87,5.87,0,0,1-.82-.23,2,2,0,0,1-.87-.66,3.26,3.26,0,0,1-.24-.4,3.31,3.31,0,0,1-.12-.42,5.34,5.34,0,0,1,0-.8,14.05,14.05,0,0,1,.79-3.06,9.18,9.18,0,0,1,.92-1.58l0,0a1.8,1.8,0,0,0,.32-.06,2,2,0,0,0,.72-.38c.33.17.65.37,1,.55a13,13,0,0,0,1.26.59.46.46,0,0,0,.62-.16.44.44,0,0,0-.17-.61c-.32-.15-.66-.29-1-.46a6.93,6.93,0,0,1-.72-.48l-.35-.32h0a13.21,13.21,0,0,1,2.74,0Zm3.87,1.84c0,.05,0,.09,0,.14l0-.14Zm-10.07,4.3s0,.07,0,.1l0-.1Zm6.65.72-.1.07.1-.07Zm-3.69,1.69-.12,0,.12,0Z"/><path d="M1453.78,618.76c-.59,0-1.17.07-1.76.13s-1.16.15-1.74.24c-.41.07-.81.15-1.22.24s-1,.19-1.47.31-1,.23-1.45.36a16.83,16.83,0,0,0-2.85,1,3,3,0,0,0-.74.48,1.84,1.84,0,0,0-.58.8,1,1,0,0,0,0,.75,1.16,1.16,0,0,0,.69.49,3.94,3.94,0,0,0,.77.19l.86.16a.55.55,0,0,0,.67-.38.56.56,0,0,0-.38-.68,8.1,8.1,0,0,1-1-.2l.07,0a16.34,16.34,0,0,1,3.11-.72c.46-.08.93-.15,1.4-.21.81-.11,1.62-.21,2.44-.27,1-.08,2.07-.13,3.11-.13A1.27,1.27,0,0,0,1455,620a1.28,1.28,0,0,0-1.21-1.26Z"/><path d="M1449.13,614.39a20.38,20.38,0,0,0-.63,2.25c-.15.75-.24,1.51-.32,2.27-.07.6-.14,1.21-.2,1.83-.12,1.28-.24,2.56-.32,3.85s-.16,2.6-.22,3.91c0,.59-.06,1.19,0,1.78a6.42,6.42,0,0,0,.31,2.14,1.58,1.58,0,0,0,.68.88,1.44,1.44,0,0,0,1.13.15,1.48,1.48,0,0,0,1-1.81,17.9,17.9,0,0,1-.55-2.41,37.18,37.18,0,0,1-.18-5.17c.06-2,.18-4.06.42-6.07a17.37,17.37,0,0,1,.74-3.09,1,1,0,0,0-.67-1.17.73.73,0,0,0-.25,0,1,1,0,0,0-.92.7Zm1.12,3.37c0,.07,0,.14,0,.21a1.49,1.49,0,0,1,0-.21Z"/><path d="M1464.29,618.46a13.07,13.07,0,0,0-2.49.41,9.44,9.44,0,0,0-4.24,2.17,6,6,0,0,0-.79,1,4.65,4.65,0,0,0-.5,1.14,6.09,6.09,0,0,0-.22,2.81,6,6,0,0,0,.84,2.2,8.92,8.92,0,0,0,1.73,2,9.91,9.91,0,0,0,4.37,2.26,11,11,0,0,0,2.44.25,14,14,0,0,0,2.74-.32,35.62,35.62,0,0,0,4.48-1.38c1-.37,2.08-.75,3.11-1.14s2.06-.83,3.06-1.29a1.71,1.71,0,0,0,.81-1,1.79,1.79,0,0,0-.18-1.36,1.76,1.76,0,0,0-1-.8l-.47-.07a1.71,1.71,0,0,0-.88.24l-.28.12c-1.39.57-2.81,1.06-4.2,1.6-.74.28-1.48.59-2.22.85a24.67,24.67,0,0,1-4.2,1.24,10.78,10.78,0,0,1-2.2,0l-.21,0a11.55,11.55,0,0,0,3.72-1.18,11.29,11.29,0,0,0,2-1.33,9.22,9.22,0,0,0,1.65-1.77,6.42,6.42,0,0,0,1-1.89,2.81,2.81,0,0,0,0-1.41,2.93,2.93,0,0,0-.26-.66,2.67,2.67,0,0,0-.52-.68,5.68,5.68,0,0,0-2.15-1.25,11.45,11.45,0,0,0-2.66-.56,13.56,13.56,0,0,0-1.68-.12l-.56,0Zm2,3.06a10.37,10.37,0,0,1,2.34.56,3.88,3.88,0,0,1,.63.35l.09.09c0,.1-.06.21-.1.32a8.49,8.49,0,0,1-.76,1.3,9.69,9.69,0,0,1-1.33,1.31,10.79,10.79,0,0,1-2,1.17,9.88,9.88,0,0,1-2.2.63,7.32,7.32,0,0,1-1.48,0,8.24,8.24,0,0,1-.89-.19h0c.43,0,.87,0,1.3-.06a.28.28,0,0,0,0-.55,9,9,0,0,1-1.27,0,3.25,3.25,0,0,1-.61-.17,2.61,2.61,0,0,0-.8-.31c-.07-.21-.13-.43-.18-.65a4.45,4.45,0,0,1,0-.73,5.83,5.83,0,0,1,.23-.89l.17-.28a6,6,0,0,1,.62-.61,8.32,8.32,0,0,1,1.28-.7,12.35,12.35,0,0,1,2.43-.61,11.09,11.09,0,0,1,2.51,0Zm.14,0h0Zm2.92.72s0,.09,0,.13,0-.08,0-.13Zm0,.26.08.05-.08-.05Zm-9.41,3.74h0Zm-.34.18,0,.07a.25.25,0,0,1,0-.07Z"/><path d="M1122.58,115.22q-19.41,0-38.83,0h-19.82q-9.54,0-19.1,0a.55.55,0,0,0-.55.55.56.56,0,0,0,.55.56l25.48,0,25.92,0q26,0,52,0,26.36,0,52.71-.09l25.71,0c8.7,0,17.39,0,26.09,0h17q11.33,0,22.66,0h33.47c1.43,0,2.87,0,4.3,0a.49.49,0,1,0,0-1c-1.39-.06-2.78-.06-4.17-.06-.39,0-.78,0-1.17,0H1318l-12.59,0q-13.07,0-26.12,0h-26.08q-13,0-26.09,0l-25.68,0-27.11-.07q-17.25,0-34.5,0Z" style="opacity:0.490000009536743"/><path d="M1154.21,134l-28.47,0-21.32,0-21.47,0-21.48.06-10.92,0-5.57,0h-4.8a.26.26,0,0,0-.25.25.25.25,0,0,0,.25.25h5.38l6.87,0,13,0,13,0,12.41,0,13.1,0,12.38,0q14.06,0,28.11,0,28.83,0,57.65,0l56.42-.07,23.76,0q12,0,24,0l23.89,0h19.93a.24.24,0,0,0,.22-.11h0a.28.28,0,0,0,.06-.18.27.27,0,0,0-.06-.17h0a.24.24,0,0,0-.22-.11h-24.18l-29,0-28.57,0-28,0q-28.74,0-57.49,0Z" style="opacity:0.490000009536743"/><path d="M1051.94,152.54a.55.55,0,1,0,.55-.55.55.55,0,0,0-.55.55Z" style="opacity:0.490000009536743"/><path d="M1044.11,152.54a.43.43,0,0,0,.42.42l21.84,0h22q21.84,0,43.65,0l21,0,21.48,0,20.45,0,19.87,0c10.31,0,20.61,0,30.92,0h28.1c.57,0,1.15,0,1.72,0a.3.3,0,0,0,.29-.29.28.28,0,0,0-.29-.28c-.71,0-1.42,0-2.13,0H1271l-4.83,0h-27.82q-19.81,0-39.64,0h-20.41q-10.69,0-21.39,0-21.37,0-42.76,0h-69.61a.43.43,0,0,0-.42.41Z" style="opacity:0.490000009536743"/><path d="M1190,463.23l-28.29,0-28.16.06q-23.05,0-46.12,0h-43.08c-.43,0-.86,0-1.29,0H1043a.42.42,0,0,0-.21.06.58.58,0,0,0-.23.26h0v0h0v.05h0v0h0v0h0v0h0v0h0v0h0a.47.47,0,0,0,.07.25.58.58,0,0,0,.1.12.65.65,0,0,0,.23.13l.15,0c.43,0,.86,0,1.29,0h51.37q14.38,0,28.76,0,13.86,0,27.74,0,28.27.09,56.57.09,27.49,0,55,0l46.81,0q11,0,22,0l11.16,0h8.62a.58.58,0,0,0,.58-.42.54.54,0,0,0,0-.31.58.58,0,0,0-.57-.42H1341.5l-13.1,0-26.94,0q-28,0-55.91-.06H1222.4l-32.42,0Z" style="opacity:0.490000009536743"/><path d="M1137.85,478.9h-48.09q-12.18,0-24.35,0l-12.18.05-6.37.05-2.55,0-1.67,0a3,3,0,0,0-.87.07.35.35,0,0,0-.13.05.41.41,0,0,0-.2.26.49.49,0,0,0,0,.12.45.45,0,0,0,0,.11.41.41,0,0,0,.2.26.24.24,0,0,0,.13.05,3.39,3.39,0,0,0,.87.08l1.67,0,3.12,0c2.51,0,5,0,7.54.06l14.35.05c9.3,0,18.61,0,27.91,0h113.59l27.14,0c8.82,0,17.64-.06,26.45-.08q22.23-.06,44.45-.07l22.82,0h18.43a1.89,1.89,0,0,0,.41,0h0a.44.44,0,0,0,.25-.19.61.61,0,0,0,0-.12.4.4,0,0,0,0-.25.61.61,0,0,0,0-.12.44.44,0,0,0-.25-.19h0a1.89,1.89,0,0,0-.41,0h-21.85l-27,0q-25.85,0-51.71-.12-13.12,0-26.27,0-14.28,0-28.57,0h-56.81Z" style="opacity:0.490000009536743"/><path d="M1051.69,502.14a.55.55,0,1,0,.55-.55.55.55,0,0,0-.55.55Z" style="opacity:0.490000009536743"/><path d="M1251.71,499.4h-55q-27.11,0-54.2,0-24,0-47.93.08-11.91,0-23.83.08l-12.38.06-5.7,0-2.64,0-1.45,0h-.45c-.1,0-.21,0-.31.06a.2.2,0,0,0-.13,0h0a.41.41,0,0,0-.19.18.47.47,0,0,0,0,.1v.05a.17.17,0,0,0,0,.07.49.49,0,0,0,0,.2.55.55,0,0,0,.14.17.38.38,0,0,0,.21.07l.17,0a2.26,2.26,0,0,0,.58,0l1.45,0,2.64,0,6.9,0,14.1.06,27,.09q26.69.07,53.38.06l55.08,0h54.64q24.73,0,49.46,0c7.69,0,15.37,0,23-.07l10.85-.05,5.25,0,2.5,0h1.27a8.85,8.85,0,0,0,1,0,.61.61,0,0,0,.35-.11l.08-.07a.57.57,0,0,0,.17-.42.63.63,0,0,0-.17-.43l-.08-.06a.54.54,0,0,0-.35-.11c-.34,0-.69,0-1,0h-3.77c-2,0-4,0-6,0-4.22,0-8.43,0-12.65-.06l-12.82,0q-6.87,0-13.74,0h-55.36Z" style="opacity:0.490000009536743"/><path d="M1265.52,515.92l-4.29.08c-3.17,0-6.35,0-9.53.07s-6.43,0-9.65,0l-9,0c-3.29,0-6.57-.05-9.86-.06-6.51,0-13,0-19.53,0l-41.37,0c-13.48,0-27,.06-40.46.07h-37.77q-9.71,0-19.43,0c-3.3,0-6.59,0-9.89.09l-4.69.06c-1.58,0-3.16,0-4.74.06a.49.49,0,0,0-.36.17h0a.41.41,0,0,0-.1.29.43.43,0,0,0,.1.29h0a.43.43,0,0,0,.36.17c1.44.05,2.88,0,4.31.06l5.12.07c3.44.05,6.87.07,10.3.09q10.14,0,20.27,0,19.68,0,39.35,0c13.57,0,27.14.07,40.71.08l41.23,0c6.28,0,12.56,0,18.84,0,5.87,0,11.75-.09,17.61-.09l9.44,0c3,0,6.08,0,9.11.07,1.31,0,2.62.05,3.93.07s2.76,0,4.15,0h6.09a5.14,5.14,0,0,0,.88-.05,1,1,0,0,0,.38-.22.86.86,0,0,0,.25-.61,1,1,0,0,0-.11-.44.87.87,0,0,0-.52-.4,9.8,9.8,0,0,0-1.21,0h-2.69l-3.07,0Z" style="opacity:0.490000009536743"/><path d="M1065.79,536.39a1,1,0,0,0,0,2l23.85,0h25l48.18,0q25.26,0,50.51,0h50.79q11.77,0,23.53-.12c7.86-.06,15.71,0,23.56,0H1333c2.84,0,5.68,0,8.53,0l3.69,0,2.17,0h1.06c.27,0,.53,0,.79,0a.61.61,0,0,0,.27,0,.66.66,0,0,0,.19-.09h0l0,0,.13-.1a.8.8,0,0,0,.24-.56.72.72,0,0,0-.08-.32h0l0-.06-.08-.11a.85.85,0,0,0-.41-.26,1.8,1.8,0,0,0-.52,0c-.41,0-.82,0-1.23,0l-2.21,0-4,0c-3,0-5.93,0-8.89,0H1298c-4.12,0-8.25,0-12.38-.06q-12.21-.09-24.42-.1l-50.78,0q-25.42,0-50.86,0h-70.29c-7.83,0-15.65,0-23.47,0Z" style="opacity:0.490000009536743"/><path d="M1090.17,554.79q-11.82,0-23.62.05c-8.62,0-17.23.06-25.84.06a.61.61,0,0,0-.61.61.6.6,0,0,0,.61.6c8.8,0,17.6,0,26.4.07q12,0,24,0,12.18,0,24.36,0l24.55-.07q25.56,0,51.12,0,25.93,0,51.86,0,23.58,0,47.15,0h39.41a.64.64,0,0,0,.28-.07.58.58,0,0,0,.29-.27.55.55,0,0,0,.09-.33h0a.59.59,0,0,0-.09-.33.61.61,0,0,0-.29-.26.53.53,0,0,0-.28-.07h-40.49q-24.39,0-48.79,0-25.89,0-51.78,0-25.5,0-51-.06c-7.81,0-15.62,0-23.42-.07h-23.91Z" style="opacity:0.490000009536743"/><path d="M1131.19,572.5q-20.7,0-41.41,0l-20.81,0c-7.2,0-14.4.06-21.6.06a.51.51,0,0,0,0,1l12.31,0,12.86,0q12.29,0,24.55,0,24.86,0,49.69,0,51.49,0,103,0l42.26-.05h29.81l4.94,0h3.89a.56.56,0,0,0,.31-.09l.09-.08a.56.56,0,0,0,.17-.4.55.55,0,0,0-.17-.41.31.31,0,0,0-.11-.09.6.6,0,0,0-.29-.08h-4.38l-5.51,0h-11.44l-24.55,0q-12.74,0-25.46,0h-76.69q-22.92,0-45.84,0Z" style="opacity:0.490000009536743"/><path d="M1071.68,592.38c-9.16,0-18.32,0-27.47,0a.78.78,0,0,0,0,1.56c9.35,0,18.71,0,28.07,0q13.2,0,26.4,0c9.22,0,18.43,0,27.65-.06,8.82,0,17.64,0,26.45,0q28.4,0,56.76,0,27.54,0,55.06-.09c8.83,0,17.65,0,26.47-.07l12.75,0h21.08c4.53,0,9.07.05,13.61.06h7c1,0,1.92,0,2.88,0l.39,0h4.35l1.42,0c.52,0,1,0,1.56,0a.63.63,0,0,0,0-1.26l-1,0-1.62,0h-4.92a.66.66,0,0,1-.2,0c-1.43,0-2.88,0-4.32,0l-5.89,0-13.77.06h-17.31c-1.3,0-2.6,0-3.89,0-4.58,0-9.16,0-13.73,0l-27.31-.07-55-.08q-28.36,0-56.73,0-12.67,0-25.36,0c-9.13,0-18.27,0-27.41-.06h-25.94Z" style="opacity:0.490000009536743"/><path d="M1062.52,609.53l-6.39,0q-6.29,0-12.59,0a.76.76,0,0,0,0,1.52q7.21,0,14.42,0l6.5,0q3.36,0,6.74,0c9.32,0,18.65-.09,28-.1q28.46,0,56.92-.05,35.14,0,70.3,0h69.94c7.39,0,14.78,0,22.17,0l21.94,0h18.93a.62.62,0,0,0,.6-.49h0v0h0v-.17h0v0h0a.61.61,0,0,0-.6-.48h-21.75l-24.86,0q-27.58,0-55.16,0h-58.86l-57.18,0c-16.37,0-32.74,0-49.11-.06-8.13,0-16.26-.09-24.39-.1l-5.55,0Z" style="opacity:0.490000009536743"/><path d="M1347.62,628.7h-45.13q-26.73,0-53.45,0-27.9,0-55.81.07l-27.16.05-27.35,0h-47.61l-48,0a.52.52,0,0,0-.52.52.52.52,0,0,0,.52.52q26.51,0,53,0h18q18,0,36,0c18.25,0,36.5.09,54.74.11q27.63,0,55.25.06,23.84,0,47.65,0h24.59l9.66,0h5.61c1.63,0,3.26,0,4.9,0a.71.71,0,0,0,.55-.26.73.73,0,0,0,.18-.48.75.75,0,0,0-.18-.48.71.71,0,0,0-.55-.26h-4.9Z" style="opacity:0.490000009536743"/><path d="M1038.85,664.21a.89.89,0,0,0,.88.88l48.29,0,50.32-.05q49.52,0,99-.23,11.21,0,22.4,0t22.48-.1q10.77,0,21.52,0c3,0,6,0,9.07,0l5.58,0,2.76,0a3.53,3.53,0,0,0,.46,0h1l.21,0a.45.45,0,0,0,.39-.19h0a.48.48,0,0,0,.1-.28v-.05a.48.48,0,0,0-.1-.28h0a.44.44,0,0,0-.39-.18h-.24c-.31,0-.62,0-.94,0h-.46l-2.76,0-6.49,0c-3.61,0-7.23,0-10.85,0-7.83,0-15.67,0-23.5,0q-25.38-.11-50.77-.18l-24.17-.07-25-.06q-25-.06-49.93-.05c-14.78,0-29.55,0-44.33,0l-43.62,0a.89.89,0,0,0-.88.88Z" style="opacity:0.490000009536743"/><path d="M1043.19,684.28a.55.55,0,1,0,.55-.55.55.55,0,0,0-.55.55Z" style="opacity:0.490000009536743"/><path d="M1199.39,682.22h-30.47c-10,0-20,0-29.94,0l-12.23,0h-24.3c-4.56,0-9.11,0-13.66,0q-12.63,0-25.26.07l-13.58.09-6.06.06-3.6,0c-.94,0-1.88,0-2.83,0a.26.26,0,0,0-.25.25.25.25,0,0,0,.25.25c1,0,1.89,0,2.83,0l3.6,0,7.2.07,15.11.1q14.58.06,29.17.05,14,0,28,0l13.91,0,14.91,0q30.07,0,60.17,0,29.66,0,59.32,0l26.4,0h59.23l4.8,0h4.34a2.37,2.37,0,0,0,.46,0,.55.55,0,0,0,.4-.52.53.53,0,0,0-.4-.51,3.57,3.57,0,0,0-.46,0h-4.34l-5.77,0h-11.93l-27.29,0-28.83,0-29.65,0h-59.25Z" style="opacity:0.490000009536743"/><path d="M1061.44,700.35c-7,0-14.09,0-21.14,0a.53.53,0,0,0,0,1.06c8.27,0,16.53,0,24.8.06q12.95,0,25.91,0l26.28,0q13.39,0,26.79,0l55.18-.06q27,0,54,0h62.13l8.82,0c1.94,0,3.89,0,5.83,0h2.65c.63,0,1.26,0,1.89,0a2.33,2.33,0,0,0,.38,0h8.3c.78,0,1.56,0,2.33,0a.57.57,0,0,0,.39-.16.59.59,0,0,0,.16-.39.55.55,0,0,0-.16-.39.57.57,0,0,0-.39-.16c-.64,0-1.29-.06-1.94-.06h-8.3a3.9,3.9,0,0,0-.77,0c-.63,0-1.26,0-1.89,0l-3.24,0-6.45,0-10.5,0H1237l-54.71-.05q-27,0-54-.06l-22.36,0q-11.28,0-22.58,0l-21.89,0Z" style="opacity:0.490000009536743"/><path d="M1042.22,719a.89.89,0,0,0,.88.88q25.8,0,51.6,0c16.73,0,33.48-.09,50.22-.12l54.06-.06q26.89,0,53.79,0,21.32,0,42.61-.06l21-.05h19l.26,0c.22,0,.43,0,.65,0a.45.45,0,0,0,0-.89c-.31,0-.61,0-.91-.06h-21.46l-23.85,0-22.75,0h-26.78q-53.74-.06-107.5-.13-22-.07-44-.09-23,0-45.89-.05a.89.89,0,0,0-.88.87Z" style="opacity:0.490000009536743"/><path d="M1294.1,737.89l-2.76.05c-1.66,0-3.32,0-5,0h-31.28l-44.6,0q-23.09,0-46.14,0l-22.33,0h-22.07l-37.21.05c-12.73,0-25.46.07-38.19.07a.59.59,0,0,0,0,1.18c14.44,0,28.89,0,43.33.07l43,.06,45.19,0c7.81,0,15.62,0,23.42,0h22.2l38.46,0h31.51l2.47,0h.26a.71.71,0,0,0,.56-.27h0a.67.67,0,0,0,.17-.46.72.72,0,0,0-.17-.46h0a.71.71,0,0,0-.56-.27h-.27Z" style="opacity:0.490000009536743"/><path d="M1240.62,756.29h-1.86l-4.06,0c-1.23,0-2.47,0-3.7,0-.45,0-.89,0-1.34.06s-1,0-1.44,0h-.67c-5.76,0-11.52,0-17.28,0h-35.35l-71.52,0c-18.83,0-37.65.09-56.48.09a.69.69,0,1,0,0,1.37l17.73,0c5.67,0,11.33,0,17,0q17.35.06,34.72,0,36.08,0,72.17,0H1227c1,0,2.12,0,3.17,0s1.87,0,2.81.06l3,0h4.71a6.11,6.11,0,0,0,1.35,0,.82.82,0,0,0,.51-.36,1,1,0,0,0,.14-.29,1,1,0,0,0,0-.24,1,1,0,0,0,0-.25,1.11,1.11,0,0,0-.14-.29.86.86,0,0,0-.51-.36,3,3,0,0,0-.67-.06Z" style="opacity:0.490000009536743"/><path d="M122.85,984.81v3.38c-.9-.07-1.91-.07-3.27-.07H94c-1.33,0-2.38,0-3.24.07v-3.38c.86.07,1.91.07,3.24.07h10.22V959.57c0-.39,0-1.22-.07-1.62.83,0,3,.08,3.74.15,0,.43-.07,1-.07,1.47v9.22h10.84c.68,0,1.29,0,1.87,0V972c-.58,0-1.19,0-1.87,0H107.84v12.89h11.74C120.94,984.88,121.92,984.88,122.85,984.81Z"/><path d="M144.42,963.14v5.65a132.33,132.33,0,0,1,12,6c-.5.83-1.26,2.19-1.66,3a87.37,87.37,0,0,0-10.29-5.65V988c0,.73,0,1.52.07,2.17h-3.71c0-.65.07-1.44.07-2.17v-24.9H130.38c-1.37,0-2.38,0-3.28.07v-3.38c.9.07,1.91.07,3.28.07h25.45c1.33,0,2.34,0,3.24-.07v3.38c-.9-.07-1.91-.07-3.24-.07Z"/><path d="M193.74,974.15c0,6.88-4.54,11.7-11.52,13.79l-2.31-2.63c7.64-1.87,10.44-6.59,10.44-11.19,0-5.76-3.88-9-9.61-9.29-.68,10-4.1,20.41-10.62,20.41-3.13,0-6.22-3-6.22-8.64,0-8.21,6.15-14.76,15.58-14.76C187.55,961.84,193.74,966.23,193.74,974.15Zm-16.17-9.36a11.17,11.17,0,0,0-10.43,11.38c0,4.24,1.9,5.86,3.24,5.86C173.72,982,177,974.47,177.57,964.79Z"/><path d="M216.56,983.87c0,.5.07,2.12.07,2.52,0,2.19-1.8,3.42-7.19,3.42-.33-.76-1.12-2.38-1.62-3.35a27.83,27.83,0,0,0,3,.22c1.8,0,2.31-.4,2.31-1.12v-8.17H202.85c-1.3,0-2.23,0-3.1.07v-3.34c.87.07,1.8.07,3.1.07h10.26v-3.82h-4.79c-.79,0-1.44,0-2,0v-1.66a35.09,35.09,0,0,1-6.09,3.42,20.58,20.58,0,0,0-2-3.06c5.58-2.19,12.38-7.2,15.23-12.34l3.59.68c-.07.11-.21.25-.25.32,2.81,4.68,9.36,9.43,14.9,11.45a21.77,21.77,0,0,0-1.94,2.95,30.11,30.11,0,0,1-6.33-3.49v1.73c-.62,0-1.26,0-2.06,0h-4.75v3.82h10.3c1.26,0,2.23,0,3.09-.07v3.34c-.86-.07-1.83-.07-3.09-.07h-10.3ZM209,981.71a29.11,29.11,0,0,1-7.84,6.41c-.47-.69-1.52-2-2.2-2.85a23.52,23.52,0,0,0,7.7-5.86l2.63,2A2,2,0,0,0,209,981.71Zm-.68-14.4h13.17a36.46,36.46,0,0,1-6.62-6.77,36.92,36.92,0,0,1-6.69,6.77ZM230.53,985c-.65.9-1.62,2.37-2.09,3.13a24.39,24.39,0,0,1-7.92-6.77c.9-.68,1.77-1.33,2.63-2A23.26,23.26,0,0,0,230.53,985Z"/><path d="M263.11,988l.07,1.94H259.8V988h-18V990h-3.35c0-.54.07-1.26.07-1.94V965.08c0-.65,0-1.33-.07-1.94h7.92a22.17,22.17,0,0,0,2.31-5.8c1.22.22,2.62.5,3.81.72-.07.18-.25.43-.29.58-.5,1.19-1.26,3-2.09,4.5h13.07c0,.64-.07,1.29-.07,1.94ZM241.8,966.2v7.3h18v-7.3Zm18,18.71v-8.35h-18v8.35Z"/><path d="M299.15,973.72c-2.85.57-5.3,1.11-7.67,1.8.07,1.08.11,2.3.11,3.67l.14,2.52h-3.35l.15-2.74c0-.9,0-1.69-.08-2.41-4.35,1.66-6.91,3.31-6.91,5.58,0,2.81,3.42,3.35,7.27,3.35a47.3,47.3,0,0,0,8.93-1l.18,3.46a66.91,66.91,0,0,1-9.21.64c-4.68,0-10.41-1.15-10.41-6.11,0-3.64,3.57-6.23,9.94-8.57-.4-2.23-1.19-2.77-2.92-2.77a9.8,9.8,0,0,0-6.44,2.62,18.93,18.93,0,0,0-3.24,3.42l-1.19,1.52-2.73-2.6,1.69-1.33a40.85,40.85,0,0,0,7.95-9.14h-6l-1.8.11v-3.17l1.8.11h7.31a33.92,33.92,0,0,0,1.12-4.18l3.59.29-.5.94-.93,2.95H295l1.77-.11v3.17l-1.77-.11H284.75a23.6,23.6,0,0,1-2.49,3.74,9.43,9.43,0,0,1,3.53-.79c3.06,0,4.57,1.33,5.29,4.32,2.31-.76,4.68-1.4,7.27-2l2.42-.69.9,3.21Z"/><path d="M308.94,977.61a27.48,27.48,0,0,0-2.2-2.67,44.5,44.5,0,0,0,12.71-4.89,46.78,46.78,0,0,0-4.68-3.35,41.27,41.27,0,0,1-5.15,2.77,34,34,0,0,0-2.34-2.59c5-1.91,11-5.94,13.47-9.76,1.11.18,2.91.55,3.78.72a2.65,2.65,0,0,0-.29.29,25.27,25.27,0,0,1-2.2,2.67h7.63a2.64,2.64,0,0,1,.29-.29,21.09,21.09,0,0,1,2.74,1.94,5,5,0,0,1-.54.22C327.77,969.11,319.42,975,308.94,977.61Zm29.3-3.17c-4.32,7.92-12.49,13.89-25.92,16-.36-.62-1.36-1.91-2-2.77a46.15,46.15,0,0,0,16-5.33,40.52,40.52,0,0,0-5-3.49A37.15,37.15,0,0,1,313.8,982a14,14,0,0,0-1.8-2.59c5.87-1.4,12.71-5.25,16-10l3.31,1-.25.33c-.47.64-1,1.26-1.55,1.87h6a3.05,3.05,0,0,1,.36-.36,21.57,21.57,0,0,1,2.74,2C338.53,974.33,338.38,974.37,338.24,974.44Zm-10.69-10.87h-8.49a20.66,20.66,0,0,1-1.95,1.51,57.43,57.43,0,0,1,5,3.31A28.82,28.82,0,0,0,327.55,963.57ZM334,975.34h-7.45a33.06,33.06,0,0,1-2.74,2,42,42,0,0,1,5.08,3.31A20.9,20.9,0,0,0,334,975.34Z"/><path d="M373.7,976.53c0,6.76-5.47,11.41-12.27,12.31L359.27,986c7.34-.72,11.05-4.6,11.05-9.57a8.12,8.12,0,0,0-6.77-8.1,39.18,39.18,0,0,1-6.15,12c-2.52,3.2-5.51,5.32-8.36,5.32s-4.82-2.52-4.82-5.94a13.74,13.74,0,0,1,6.3-11.15,43.09,43.09,0,0,1-.86-6.52l-.18-1.51,3.6.14L352.9,962a35.77,35.77,0,0,0,.43,5,18.94,18.94,0,0,1,7.95-1.69,44.32,44.32,0,0,0,.79-4.79l.08-1.51,3.56.72-.36,1.26c-.25,1.58-.58,3.13-1,4.64C369.63,966.7,373.7,970.7,373.7,976.53Zm-19.15,2.62a27,27,0,0,1-3.31-7.59,10.55,10.55,0,0,0-3.92,7.67c0,1.76.72,3.2,2.05,3.2C350.92,982.43,352.72,981.28,354.55,979.15Zm-.68-9.39a22.33,22.33,0,0,0,2.63,6.84,31.81,31.81,0,0,0,4-8.57A15.28,15.28,0,0,0,353.87,969.76Z"/><path d="M382.67,961.44l.29-1.51,3.49.9-.58,1.23a59.47,59.47,0,0,0-1.58,13.21,56.27,56.27,0,0,0,1.26,12.38l-3.28.79a59.52,59.52,0,0,1-1.19-12.89A71.46,71.46,0,0,1,382.67,961.44Zm26.27,24.23a50.44,50.44,0,0,1-8.74.76c-6.19,0-10-1.55-10-5.66a5.84,5.84,0,0,1,2.08-4.35l2.77,1a4,4,0,0,0-1.58,3c0,2.09,2.09,3.06,6.66,3.06a42.9,42.9,0,0,0,8.6-.9ZM393,964.32h13.71l1.44-.07v3.21l-1.44-.08H393l-1.44.08v-3.21Z"/><path d="M447.86,986.68c-.5.9-1.3,2.37-1.69,3.2A27.33,27.33,0,0,1,439,983.4a25.23,25.23,0,0,1-7.56,6.37,29.17,29.17,0,0,0-1.94-3v.94c0,.72,0,1.51.07,2.12h-3.38c0-.61.07-1.4.07-2.12V983.8c-2.95.57-7.67,1.51-9.79,1.87-.65.11-1.33.25-1.66.32l-.57-3.38a12.8,12.8,0,0,0,2-.18l.72-.11V961.77h-.54c-.83,0-1.47,0-2.12,0v-3.13c.65,0,1.29,0,2.12,0h13.75c.83,0,1.51,0,2.16,0v3.13c-.61,0-1.33,0-2.16,0h-.68v24.94a21,21,0,0,0,7.63-6.22A37,37,0,0,1,433,965.62h-.36c-.65,0-1.19,0-1.77,0v-3.17c.58,0,1.12,0,1.77,0h10.8l.36-.36a29.2,29.2,0,0,1,2.41,2c-.11,0-.22.11-.36.14-.79,6.88-2.41,12.1-4.79,16.2A27.63,27.63,0,0,0,447.86,986.68Zm-27.57-24.91v4.53h6v-4.53Zm0,11.77h6v-4.28h-6Zm6,7.05v-4.1h-6v5.29C422.38,981.39,424.64,981,426.3,980.59Zm12.81-3.2a33,33,0,0,0,3.42-11.77H436A31.47,31.47,0,0,0,439.11,977.39Z"/><path d="M480.37,979.23c0,6.66-6.62,9.82-12.56,9.82-4.29,0-8-1.58-8-4.89,0-3.13,3.39-4.5,6.19-4.5a9.14,9.14,0,0,1,7.85,4.93,6.36,6.36,0,0,0,3.13-5.4c0-3.64-3.35-5.83-7.81-5.83-5.83,0-9.86,2.37-14,6.69l-2.45-2.66,1.44-.83c4.18-3.06,13-9.39,17-12.7-2.31,0-6.12.1-10.48.14l-2.52.18v-3.24l2.52.14h13.79l.79-.43,1.59,3.13-1,.29c-1.69,1.15-6.09,4.32-9.94,7.17a16.87,16.87,0,0,1,4-.54C475.76,970.7,480.37,974.15,480.37,979.23Zm-9.32,6.58a5.84,5.84,0,0,0-5-3.67c-1.87,0-3.13.69-3.13,1.87,0,1.55,2.3,2.24,4.67,2.24A13,13,0,0,0,471.05,985.81Z"/><path d="M494.81,987.83c0,.68,0,1.37.07,2h-3.64c0-.58.08-1.3.08-2,0-3.2.18-11.74.39-17.57a28.09,28.09,0,0,1-4,5.08A27.09,27.09,0,0,0,486,972c3.24-2.92,7.71-10.15,8.82-14.91l3.21,1.23c-.08.11-.11.18-.18.29a55.08,55.08,0,0,1-3,6.91Zm13.53-21v4.75h8.07c.53,0,1,0,1.58,0v3.09c-.54,0-1,0-1.58,0h-8.07v4.85h8.07c.53,0,1,0,1.58,0v3.09c-.54,0-1,0-1.58,0h-8.07v5.36c0,.65,0,1.3.07,1.91h-3.49c0-.61.07-1.26.07-1.91v-21h-1.33a34.28,34.28,0,0,1-5.61,8.13c-.43-.64-1.44-2-2.09-2.91,3.13-3.1,6.37-8.93,7.92-14.87l3.2,1.19a1.6,1.6,0,0,0-.25.4,46.18,46.18,0,0,1-1.76,5h12c.79,0,1.41,0,2,0v3.14c-.61,0-1.23,0-2,0Z"/><path d="M533.11,988.62a6.68,6.68,0,0,0,.07,1.22h-3a11.64,11.64,0,0,0,0-1.22v-5.33h-5.69c-.83,0-1.48,0-2.13,0v-3c.65,0,1.3,0,2.13,0h5.69v-2.59h-6.12c0-.39.07-.83.07-1.22V965.55c0-.43,0-.87-.07-1.23h10a27.94,27.94,0,0,0,3.39-6.58l2.88,1c-.11.14-.22.36-.29.43a49.2,49.2,0,0,1-2.85,5.18h2a11.93,11.93,0,0,0,0,1.23V976.6l0,1.22h-6.12v2.59h5.44c.82,0,1.47,0,2.12,0v3c-.65,0-1.3,0-2.12,0h-5.44ZM526,964a32.44,32.44,0,0,0-2.81-4.5l2.77-.87c.72,1.08,1.88,3,2.63,4.39C527.89,963.39,526.67,963.78,526,964ZM527,967v2.81h3.34V967Zm0,8.21h3.34v-2.88H527Zm4.39-12a31,31,0,0,0-2.31-4.89l2.67-.79a43.77,43.77,0,0,1,2.19,4.75C533.15,962.52,532,962.92,531.35,963.17Zm5,6.59V967H533v2.81Zm0,5.4v-2.88H533v2.88Zm19.83,7.31c-.29,5.57-1.4,7.23-4.07,7.23-1.87,0-3.85-1.51-5.5-5.58a23.14,23.14,0,0,1-8.82,5.51c-.33-.58-1.33-1.87-2-2.7a21.52,21.52,0,0,0,9.72-6.12,64.53,64.53,0,0,1-1.77-10.22l-1.73.18c-.68.07-1.29.14-1.9.25l-.18-3c.61,0,1.18-.11,1.9-.18l1.66-.18c-.22-2.63-.36-5.55-.43-8.79,0-.54-.07-1.08-.07-1.33,1.26.07,3,.18,3.2.22,0,.14,0,.57,0,1.15.08,3.09.18,5.94.36,8.46l6.55-.69c.69-.07,1.26-.14,1.88-.25l.18,3c-.62,0-1.19.1-1.87.18l-6.45.64a69.66,69.66,0,0,0,1.08,7.38,21.13,21.13,0,0,0,2.59-6.33l2.78,1.36a2.41,2.41,0,0,1-.19.33,28.44,28.44,0,0,1-4.17,8.46c1.08,3.38,2.3,4.86,3.31,4.86.72,0,1.15-1.48,1.12-6.52C554.21,980.63,555.54,981.89,556.22,982.47Zm-4.93-17.25a29.51,29.51,0,0,0-3.42-5c.72-.43,1.44-.9,2.2-1.37a36.6,36.6,0,0,1,3.63,4.79S552.3,964.58,551.29,965.22Z"/><path d="M1068,993.4l.07,2.2h-3.42v-2.45h-22.42v2.45h-3.35c0-.65.07-1.44.07-2.2V966.59c0-.72,0-1.51-.07-2.16h29.19c0,.75-.07,1.44-.07,2.16Zm-3.35-3.2V967.38h-22.42V990.2Zm-7.92-9c2.13,1.26,4.21,2.56,6,3.74-.58.83-1.55,2.16-1.94,2.63-2-1.37-4.11-2.77-6.34-4.1a28.16,28.16,0,0,1-8.93,5.58c-.43-.58-1.51-1.84-2.23-2.67a26.9,26.9,0,0,0,8.28-4.6c-2.38-1.37-4.75-2.59-6.91-3.57.07-.07,1-1.51,1.66-2.59.53.25,1.15.54,1.72.83a41.45,41.45,0,0,0-3-5.15c.79-.39,1.73-.9,2.63-1.33,1,1.48,2.12,3.35,3.16,5.29-.68.4-1.76,1-2.37,1.41,1.73.86,3.6,1.87,5.51,3a24.54,24.54,0,0,0,6.08-10.3l2.81,1.51a1.71,1.71,0,0,0-.22.29A28.12,28.12,0,0,1,1056.71,981.2Zm-3-6.37a40.87,40.87,0,0,0-3.1-5.51l2.59-1.26a50.37,50.37,0,0,1,3.14,5.29C1055.52,973.79,1054.26,974.51,1053.69,974.83Z"/><path d="M1106.28,992.29a28.25,28.25,0,0,0-1.73,2.84,24.59,24.59,0,0,1-15.11-15.44H1089a27.62,27.62,0,0,1-3.52,3.6v7.85c3-.51,6.08-1.08,7.45-1.48-.11,1.22-.22,2.88-.22,3.06-2.48.65-9.93,1.94-13.53,2.45-.25,0-1,.21-1.55.32l-.58-3.35c.54,0,1.37,0,1.8-.07.83-.07,2.06-.25,3.46-.43,0-1.55.07-4.1.18-6.08a33.64,33.64,0,0,1-8.46,4.17,24.62,24.62,0,0,0-1.55-2.91c4.65-1.37,9.87-4,13-7.13h-8.71c-1.33,0-2.27,0-3.17.07V976.7c.9.07,1.84.07,3.17.07h11v-2.84h-8.28c-1,0-1.87,0-2.63.07v-2.88c.76.07,1.59.07,2.63.07h8.28v-2.66h-9.65c-1.19,0-2,0-2.88.07v-3c.83.07,1.69.07,2.88.07h9.65v-1.58c0-.25,0-.87-.07-1.19.75,0,2.73.07,3.42.14a9.28,9.28,0,0,0-.08,1.05v1.58h9.9c1.19,0,2.09,0,2.88-.07v3c-.79-.07-1.69-.07-2.88-.07H1091v2.66h8.57c1,0,1.87,0,2.59-.07V974c-.72-.07-1.55-.07-2.59-.07H1091v2.84h11.45c1.33,0,2.27,0,3.17-.07v3.06c-.9-.07-1.84-.07-3.17-.07h-9.86a20.66,20.66,0,0,0,3.09,5.47c2.09-1.26,4.76-3.24,5.47-4.32l2.49,2.27-.4.18a48.24,48.24,0,0,1-5.51,4.07A23,23,0,0,0,1106.28,992.29Z"/><path d="M1137.71,979.33c-2.84.58-5.29,1.12-7.67,1.8.08,1.08.11,2.3.11,3.67l.14,2.52H1127l.14-2.74c0-.9,0-1.69-.07-2.41-4.36,1.66-6.91,3.31-6.91,5.58,0,2.81,3.42,3.35,7.27,3.35a47.48,47.48,0,0,0,8.93-1l.18,3.46a67.18,67.18,0,0,1-9.22.65c-4.68,0-10.4-1.16-10.4-6.12,0-3.64,3.56-6.23,9.93-8.57-.39-2.23-1.18-2.77-2.91-2.77a9.72,9.72,0,0,0-6.44,2.63,18,18,0,0,0-3.24,3.42L1113,984.3l-2.74-2.59,1.69-1.34a40.64,40.64,0,0,0,8-9.14h-6l-1.8.11v-3.17l1.8.11h7.3a33.92,33.92,0,0,0,1.12-4.18l3.6.29-.5.94-.94,2.95h9.11l1.76-.11v3.17l-1.76-.11h-10.3a24.27,24.27,0,0,1-2.48,3.74,9.39,9.39,0,0,1,3.53-.79c3.06,0,4.57,1.33,5.29,4.32,2.3-.75,4.68-1.4,7.27-2l2.41-.69.9,3.21Z"/><path d="M1177.27,991.1v3.28c-.79-.08-1.65-.08-2.73-.08H1154c-1.12,0-1.94,0-2.74.08V991.1c.8.07,1.62.07,2.74.07h8.64v-9.32h-7.42a29.1,29.1,0,0,1-8.56,10.76,22.13,22.13,0,0,0-1.95-3.06c4.79-3.71,8.35-9.36,10.48-16.95h-5.76c-1.26,0-2.23,0-3.1.07v-3.38c.87,0,1.84,0,3.1,0H1156c.4-1.9.73-3.88,1-6,1.47.18,3.49.47,3.6.47l-.15.36c-.29,1.8-.57,3.53-.93,5.18h14c1.26,0,2.24,0,3.1,0v3.38c-.86-.07-1.84-.07-3.1-.07h-14.86a64.15,64.15,0,0,1-2.05,6.19h15.55a22.92,22.92,0,0,0,2.3-.07v3.2a22.92,22.92,0,0,0-2.3-.07h-6.27v9.32h8.68C1175.62,991.17,1176.48,991.17,1177.27,991.1Z"/><path d="M1213.45,969.32v3.39c-.86-.08-1.87-.08-3.2-.08h-14.69a40.34,40.34,0,0,1-3.2,6.41h17.17c0,.47,0,.94,0,1.44V994l0,1.44h-3.42v-2.13h-13.39v2.13h-3.49c0-.4.07-.9.07-1.44V983.25a25.83,25.83,0,0,1-5.87,5.11,28.45,28.45,0,0,0-2.59-2.69,27.35,27.35,0,0,0,11.3-13h-7.23c-1.3,0-2.3,0-3.2.08v-3.39c.9,0,1.9,0,3.2,0h8.46a38.3,38.3,0,0,0,1.44-6.66c1.08.25,2.19.5,3.56.79,0,.11-.14.25-.18.4-.39,1.9-.9,3.7-1.44,5.47h13.5C1211.58,969.36,1212.59,969.36,1213.45,969.32Zm-20.73,12.78v8.14h13.39V982.1Z"/><path d="M1221.23,967.05l.29-1.51,3.49.9-.57,1.23a58.94,58.94,0,0,0-1.59,13.21,56.88,56.88,0,0,0,1.26,12.38l-3.27.79a58.86,58.86,0,0,1-1.19-12.88A71.45,71.45,0,0,1,1221.23,967.05Zm26.28,24.23a50.47,50.47,0,0,1-8.75.76c-6.19,0-10-1.55-10-5.66a5.86,5.86,0,0,1,2.09-4.35l2.77,1a4,4,0,0,0-1.58,3c0,2.09,2.08,3.06,6.66,3.06a43,43,0,0,0,8.6-.9Zm-15.91-21.35h13.71l1.44-.07v3.21l-1.44-.08H1231.6l-1.44.08v-3.21Z"/><path d="M1257.38,965.54l3.49.9-.58,1.23a59.47,59.47,0,0,0-1.58,13.21,56.27,56.27,0,0,0,1.26,12.38l-3.28.79a59.57,59.57,0,0,1-1.18-12.88,71.45,71.45,0,0,1,1.58-14.12Zm26.06,26.39a23.52,23.52,0,0,0-5.8-3.89c-.28,3.42-2.73,5.87-7.09,5.87s-6.84-2.38-6.84-5.15c0-3,2.52-5.08,6.55-5.08a18.66,18.66,0,0,1,4.4.44c0-2.67,0-6-.08-9.29h-9l-1.62.11v-3.17l1.62.11h9c0-1.87,0-3.6,0-4.9l-.11-1.51,3.42.29-.18,1.29v4.83h4.93l1.62-.11v3.17l-1.62-.11h-4.93c0,3.24,0,7.34,0,10.11a27.7,27.7,0,0,1,7.38,4.07Zm-8.75-4.75v-.11a13.65,13.65,0,0,0-4.32-.69c-2.66,0-3.71.9-3.71,2.27s1.55,2.31,3.71,2.31C1273,991,1274.69,989.62,1274.69,987.18Z"/><path d="M1320.05,987.46a28.82,28.82,0,0,0-4.43-3.31c-1.29,4.65-3.7,8.1-9,11l-2.63-2.37c5-2,7.56-5.08,8.89-10a24.62,24.62,0,0,0-8.64-2c-.21.58-.47,1.15-.68,1.69-2.31,5.51-5.4,9.54-8.93,9.54-2.41,0-4.28-1.87-4.28-5.29,0-4.71,4.46-8.53,11.84-8.67a39.15,39.15,0,0,0,1.62-8h-6.87l-2.52.14v-3.27l2.52.14h7.27l.54-.61,3.2,2.48-.86.51a59.6,59.6,0,0,1-2,8.75,29,29,0,0,1,8.32,1.76,43.68,43.68,0,0,0,.54-4.72v-1.51l3.34.43-.28,1.3c-.22,2.09-.44,4-.76,5.76a28.43,28.43,0,0,1,5.29,3.42Zm-19.44-5.39c.18-.44.4-.87.58-1.34-5.94.4-7.78,3.39-7.78,5.76,0,1.66.69,2.38,1.55,2.38C1296.62,988.87,1298.78,986.1,1300.61,982.07Z"/><path d="M1352.13,994.09v-.72h-21.28v.75a11.91,11.91,0,0,0,.08,1.23h-3.53c0-.36,0-.83,0-1.23V984c0-.32,0-.75,0-1.11.72,0,2.77.07,3.49.14a8.54,8.54,0,0,0,0,1v6.12h8.93v-12h-11.34a11.32,11.32,0,0,0,.07-1.22v-9.51c0-.32,0-.72,0-1.08.68,0,2.73.07,3.45.11,0,.33,0,.72,0,1v7.6h7.88V964.75c0-.39,0-1.19-.07-1.55.72,0,2.81.08,3.53.15,0,.39-.08,1-.08,1.4v10.19h7.92v-7.6c0-.32,0-.72,0-1.08.68,0,2.73.07,3.45.11,0,.33,0,.72,0,1v9.51a10.87,10.87,0,0,0,.07,1.22h-11.38v12h9v-6.26a10.76,10.76,0,0,0,0-1.12c.72,0,2.77.08,3.49.15,0,.32,0,.72,0,1v10.26a12.1,12.1,0,0,0,.07,1.26h-3.53A12.54,12.54,0,0,0,1352.13,994.09Z"/><path d="M1392.52,969v3.24l-2.16-.11h-9.25v6a11.19,11.19,0,0,1,.86,4.65c0,5-3.49,9.5-8.75,11.62l-2.3-2.52c3.53-1.19,6.59-3.74,7.45-6.08l-.25-.07a4.8,4.8,0,0,1-3.06.93,5.3,5.3,0,0,1-5-5.5,6,6,0,0,1,6-6.23,6.75,6.75,0,0,1,2,.29l0-3.1h-13.53l-2.16.11V969l2.16.11H1378l-.11-3.21-.1-1.51,3.6.29-.26,1.29c0,.83,0,1.91,0,3.14h9.25Zm-13.68,12c0-1.76-.79-3.38-2.74-3.38a2.94,2.94,0,0,0-3,3.27,2.86,2.86,0,0,0,2.81,3.13A2.91,2.91,0,0,0,1378.84,981Z"/><path d="M1405.37,993.44c0,.68,0,1.37.08,2h-3.64c0-.58.07-1.3.07-2,0-3.2.18-11.73.4-17.57a28.1,28.1,0,0,1-4,5.08,26.94,26.94,0,0,0-1.76-3.31c3.24-2.92,7.7-10.15,8.82-14.9l3.2,1.22-.18.29a51.17,51.17,0,0,1-3,6.91Zm13.54-21v4.75H1427c.54,0,1,0,1.58,0v3.09c-.54,0-1,0-1.58,0h-8.06v4.85H1427c.54,0,1,0,1.58,0v3.09c-.54,0-1,0-1.58,0h-8.06v5.36c0,.65,0,1.3.07,1.91h-3.49c0-.61.07-1.26.07-1.91v-21h-1.33a34.58,34.58,0,0,1-5.62,8.13c-.43-.64-1.44-2-2.08-2.91,3.13-3.1,6.37-8.93,7.91-14.87l3.21,1.19a1.36,1.36,0,0,0-.25.4,45.47,45.47,0,0,1-1.77,5h12c.79,0,1.4,0,2,0v3.14c-.61,0-1.22,0-2,0Z"/><path d="M1443.68,994.23a6.85,6.85,0,0,0,.07,1.23h-3a11.93,11.93,0,0,0,0-1.23V988.9h-5.69c-.82,0-1.47,0-2.12,0v-3c.65,0,1.3,0,2.12,0h5.69v-2.59h-6.12c0-.39.07-.83.07-1.22V971.16a11.51,11.51,0,0,0-.07-1.23h10a27.86,27.86,0,0,0,3.38-6.58l2.88,1c-.11.14-.21.36-.29.43a47.18,47.18,0,0,1-2.84,5.18h2a11.93,11.93,0,0,0,0,1.23v11.05l0,1.22h-6.12V986h5.43c.83,0,1.48,0,2.13,0v3c-.65,0-1.3,0-2.13,0h-5.43Zm-7.09-24.58a33.42,33.42,0,0,0-2.81-4.5l2.77-.87c.72,1.08,1.87,3,2.63,4.39C1438.46,969,1437.23,969.39,1436.59,969.65Zm.93,2.91v2.81h3.35v-2.81Zm0,8.21h3.35v-2.88h-3.35Zm4.39-12a30.54,30.54,0,0,0-2.3-4.89l2.66-.79a45.69,45.69,0,0,1,2.2,4.75C1443.71,968.13,1442.56,968.53,1441.91,968.78Zm5,6.59v-2.81h-3.38v2.81Zm0,5.4v-2.88h-3.38v2.88Zm19.84,7.31c-.29,5.58-1.41,7.23-4.07,7.23-1.87,0-3.85-1.51-5.51-5.58a23,23,0,0,1-8.82,5.51,31.37,31.37,0,0,0-2-2.7,21.46,21.46,0,0,0,9.72-6.12,64.67,64.67,0,0,1-1.76-10.22l-1.73.18c-.68.07-1.3.14-1.91.25l-.18-3c.61,0,1.19-.11,1.91-.18l1.66-.18c-.22-2.63-.36-5.55-.44-8.79,0-.54-.07-1.08-.07-1.33,1.26.07,3,.18,3.21.22,0,.14,0,.57,0,1.15.07,3.09.18,5.94.36,8.46l6.55-.69c.69-.07,1.26-.14,1.87-.25l.18,3c-.61,0-1.19.1-1.87.18l-6.44.64a67.15,67.15,0,0,0,1.08,7.38,21.13,21.13,0,0,0,2.59-6.33l2.77,1.37a3,3,0,0,1-.18.32,28.68,28.68,0,0,1-4.17,8.46c1.07,3.38,2.3,4.86,3.31,4.86.72,0,1.15-1.48,1.11-6.52C1464.77,986.24,1466.1,987.5,1466.79,988.08Zm-4.94-17.25a28.92,28.92,0,0,0-3.41-5c.71-.43,1.44-.9,2.19-1.37a37.44,37.44,0,0,1,3.64,4.79S1462.86,970.19,1461.85,970.83Z"/></svg>